<svg xmlns="http://www.w3.org/2000/svg" style="display: none;">
  
    <symbol id="icon-banknote" viewBox="0 0 512 512">
      <path d="m503 169l-160-160c-8-8-20-11-31-8c-5 1-11 4-15 8c-3 4-6 9-8 14c-7 23-19 43-38 62c-25 25-57 43-91 63c-36 21-74 43-104 74c-26 26-44 55-55 89c-3 11 0 23 8 32l160 160c8 8 20 11 31 8c5-1 11-4 15-8c3-4 6-8 8-14c7-23 19-43 38-62c25-25 57-43 91-63c36-21 74-43 104-74c26-26 44-55 55-89c3-11 0-23-8-32z m-311 311c-53-53-107-107-160-160c45-147 243-141 288-288c53 53 107 107 160 160c-45 147-243 141-288 288z m121-242c-5-4-10-7-16-8c-5-2-10-2-16-2c-5 0-10 2-16 4c-5 2-10 4-16 7c-8-10-17-20-26-29c4-4 8-5 12-6c3 0 7 1 10 2c3 0 7 1 9 2c3 0 6 0 8-2c2-2 4-5 4-8c0-3-1-6-4-9c-3-4-7-6-12-7c-5-1-10-1-15 0c-5 1-10 3-15 6c-4 3-8 5-10 8c-2-1-3-2-4-3c-1-1-2-2-4-2c-2 0-3 1-4 3c-1 1-2 2-2 4c0 2 1 3 2 4c1 1 2 2 3 3c-4 5-7 10-10 16c-2 6-4 11-5 17c0 6 0 11 2 15c2 5 5 9 10 13c7 6 16 9 26 8c11 0 22-3 33-10c10 11 19 22 29 32c-4 4-8 6-11 6c-3 1-6 1-8 0c-3-1-5-2-7-3c-2-2-4-3-6-4c-2-1-5-2-7-2c-2 0-4 1-7 3c-2 3-4 5-4 8c0 3 2 6 4 9c3 4 7 6 11 8c4 2 9 3 14 4c6 0 11-1 17-3c6-2 12-6 18-12c2 3 5 6 8 8c1 1 3 2 4 2c2-1 4-1 5-3c1-1 1-3 1-4c0-2-1-3-2-4c-3-3-5-5-8-7c5-6 8-12 11-19c3-6 5-12 5-17c1-6 0-11-1-15c-2-5-5-9-10-13z m-89 11c-5 0-9-1-12-4c-2-2-3-4-4-6c0-2 0-4 0-6c0-3 1-5 2-8c1-2 3-5 5-7c8 8 16 17 25 26c-7 3-12 5-16 5z m75 32c-1 3-3 5-5 7c-9-9-18-19-27-29c2-1 5-2 7-3c3-1 6-2 8-2c3-1 5-1 8 0c3 1 5 2 7 4c3 3 4 5 5 7c0 3 0 6 0 8c-1 3-2 6-3 8z m-64 74l0 0c-10 8-19 16-28 25c-9 8-17 18-24 27l-11 15l0 0c-2 3-1 7 1 10c4 3 9 3 12 0c0-1 1-1 1-2l10-14c7-8 14-17 22-25c9-9 17-16 27-24l0 0c1 0 1 0 1 0c3-3 3-8 0-12c-3-3-7-3-11 0z m59-232c-8 9-17 16-27 24c0 0-1 0-2 1c-3 3-3 8 0 11c3 3 8 3 12 1l0 0c10-8 19-16 28-25c9-9 17-18 24-27l11-15l0 0c2-4 2-8-1-11c-3-4-8-4-11 0c-1 0-1 1-2 2l-10 14c-7 9-14 17-22 25z"/>
    </symbol>
  
    <symbol id="icon-fire" viewBox="0 0 512 512">
      <path d="m352 144c-1 43-33 79-33 79c0-80-63-143-63-143c0 0-1 47-33 95c-32-111-127-175-127-175c48 175-16 239-16 366c0 75 63 146 160 146c143 0 171-53 186-112c20-82-10-176-74-256z m43 248c-10 41-22 88-155 88c-80 0-128-58-128-114c0-43 8-78 16-115c11-47 21-95 17-159c49 68 67 159 67 159c0 0 46-65 58-95c9 19 18 84 18 148c0 0 42-35 74-88c34 61 46 123 33 176z m-36-123l-14 15c-17 20-32 39-75 60c-6-18-12-38-12-69l0-27l-24 38c-8 13-15 23-25 38c-15-35-26-60-34-84l-8-21l-8 24c-11 31-21 60-21 135c0 4 4 8 8 8c4 0 8-4 8-8c0-58 6-86 13-111c9 21 19 45 33 76l6 12l8-11c13-18 21-30 30-43c2 23 8 40 14 57l3 8l8-3c43-21 63-40 79-58c3 30-1 63-10 86c-2 4 0 9 4 10c1 1 2 1 3 1c3 0 6-2 7-5c13-31 17-75 10-112z"/>
    </symbol>
  
    <symbol id="icon-bulb" viewBox="0 0 512 512">
      <path d="m256 0c-97 0-176 79-176 176c0 64 59 133 80 193c33 89 29 143 96 143c68 0 63-53 96-143c21-60 80-129 80-193c0-97-79-176-176-176z m41 435l-79 10c-3-8-6-18-9-31c0 0-1 0-1 0l99-12c-1 4-2 9-4 14c-2 7-4 13-6 19z m-93-36c-3-10-6-20-10-31l124 0c-2 6-4 12-5 17z m52 81c-16 0-24-2-32-20l68-8c-10 26-17 28-36 28z m75-144l-150 0c-8-17-17-35-27-51c-20-38-42-76-42-109c0-79 65-144 144-144c79 0 144 65 144 144c0 32-22 71-42 109c-10 17-19 34-27 51z m-75-256c-53 0-96 43-96 96c0 4 4 8 8 8c4 0 8-4 8-8c0-44 36-80 80-80c4 0 8-4 8-8c0-4-4-8-8-8z"/>
    </symbol>
  
    <symbol id="icon-calendar" viewBox="0 0 512 512">
      <path d="m469 48l-69 0l0-32c0-9-7-16-16-16c-9 0-16 7-16 16l0 32l-96 0l0-32c0-9-7-16-16-16c-9 0-16 7-16 16l0 32l-96 0l0-32c0-9-7-16-16-16c-9 0-16 7-16 16l0 32l-69 0c-24 0-43 19-43 43l0 378c0 24 19 43 43 43l426 0c24 0 43-19 43-43l0-378c0-24-19-43-43-43z m11 421c0 6-5 11-11 11l-426 0c-6 0-11-5-11-11l0-378c0-6 5-11 11-11l69 0l0 32c0 9 7 16 16 16c9 0 16-7 16-16l0-32l96 0l0 32c0 9 7 16 16 16c9 0 16-7 16-16l0-32l96 0l0 32c0 9 7 16 16 16c9 0 16-7 16-16l0-32l69 0c6 0 11 5 11 11z m-368-277l64 0l0 48l-64 0z m0 80l64 0l0 48l-64 0z m0 80l64 0l0 48l-64 0z m112 0l64 0l0 48l-64 0z m0-80l64 0l0 48l-64 0z m0-80l64 0l0 48l-64 0z m112 160l64 0l0 48l-64 0z m0-80l64 0l0 48l-64 0z m0-80l64 0l0 48l-64 0z"/>
    </symbol>
  
    <symbol id="icon-camera" viewBox="0 0 512 512">
      <path d="m256 160c-71 0-128 57-128 128c0 71 57 128 128 128c71 0 128-57 128-128c0-71-57-128-128-128z m73 190c-35 41-95 45-135 11c-41-35-45-95-11-135c35-41 95-45 135-11c41 35 45 95 11 135z m-73-126c-35 0-64 29-64 64l0 0c0 4 4 8 8 8c4 0 8-4 8-8l0 0c0-26 21-48 48-48c4 0 8-4 8-8c0-4-4-8-8-8z m216-79l-69-12l-22-55c-8-18-25-30-45-30l-160 0c-20 0-37 12-45 30l-22 55l-69 12c-23 4-40 23-40 47l0 240c0 26 22 48 48 48l416 0c26 0 48-22 48-48l0-240c0-24-17-43-40-47z m8 287c0 9-7 16-16 16l-416 0c-9 0-16-7-16-16l0-240c0-8 6-14 13-16l87-14l29-72c3-6 8-10 15-10l160 0c7 0 12 4 15 10l29 72l87 14c7 2 13 8 13 16z"/>
    </symbol>
  
    <symbol id="icon-clip" viewBox="0 0 512 512">
      <path d="m470 74c-56-56-148-56-204 0l-233 231c-44 44-44 115 0 158c43 44 114 44 158 0l234-230c31-32 31-82 0-114c-32-31-82-31-114 0l-175 176c-6 6-6 16 0 23c6 6 16 6 23 0l175-176c19-19 49-19 68 0c19 19 19 49 0 68l-234 231c-31 31-81 31-113 0c-31-32-31-82 0-113l232-229c43-44 114-44 158 0c44 44 44 115 0 158l-173 174c-7 6-7 16 0 22c6 7 16 7 22 0l176-175c56-56 56-148 0-204z"/>
    </symbol>
  
    <symbol id="icon-cup" viewBox="0 0 512 512">
      <path d="m450 80l-20-58c-4-13-16-22-30-22l-288 0c-14 0-26 9-30 22l-20 58c-17 1-30 15-30 32l0 48c0 18 14 32 32 32l17 0c0 1-1 2-1 4l32 288c2 16 16 28 32 28l224 0c16 0 30-12 32-28l32-288c0-2-1-3-1-4l17 0c18 0 32-14 32-32l0-48c0-17-13-31-30-32z m-338-48l288 0l16 48l-320 0z m32 448l-5-48l234 0l-5 48z m231-64l-238 0l-18-160l274 0z m20-176l-278 0l-5-48l288 0z m53-80l-384 0l0-48l384 0z"/>
    </symbol>
  
    <symbol id="icon-cloud" viewBox="0 0 512 512">
      <path d="m415 210c-7-73-68-130-143-130c-58 0-107 34-130 84c-7-2-14-4-22-4c-40 0-72 32-72 72c0 8 2 15 4 22c-31 18-52 52-52 90c0 57 47 104 104 104l0 0l288 0l0 0c66 0 120-54 120-120c0-59-42-107-97-118z m-23 206l0 0l-288 0c-40 0-72-32-72-72c0-26 14-49 36-62c22-12 24-15 14-38c-1-4-2-8-2-12c0-22 18-40 40-40c0 0 11-1 22 4c18 7 20 0 29-19c18-39 58-65 101-65c58 0 105 44 111 101c2 23 2 23 26 29c41 8 71 44 71 86c0 48-39 88-88 88z"/>
    </symbol>
  
    <symbol id="icon-settings" viewBox="0 0 512 512">
      <path d="m486 203l-49-10c-2-7-5-14-8-21l27-41c9-13 7-30-4-41l-30-30c-7-7-15-10-23-10c-6 0-12 2-18 6l-41 27c-7-3-14-6-21-8l-10-49c-3-15-16-26-31-26l-44 0c-15 0-28 11-31 26l-10 49c-7 2-14 5-21 8l-41-27c-6-4-12-6-18-6c-8 0-16 3-23 10l-30 30c-11 11-13 28-4 41l27 41c-3 7-6 14-8 21l-49 10c-15 3-26 16-26 31l0 44c0 15 11 28 26 31l49 10c2 7 5 14 8 21l-27 41c-9 13-7 30 4 41l30 30c7 7 15 10 23 10c6 0 12-2 18-6l41-27c7 3 14 6 21 8l10 49c3 15 16 26 31 26l44 0c15 0 28-11 31-26l10-49c7-2 14-5 21-8l41 27c6 4 12 6 18 6c8 0 16-3 23-10l30-30c11-11 13-28 4-41l-27-41c3-7 6-14 8-21l49-10c15-3 26-16 26-31l0-44c0-15-11-28-26-31z m-55 85c-11 2-20 10-24 20c-2 6-4 12-7 18c-5 10-4 22 2 31l28 42l-31 31l-42-28c-5-4-11-5-17-5c-5 0-10 1-14 3c-6 3-12 5-18 7c-10 4-18 13-20 24l-10 49l-44 0l-10-49c-2-11-10-20-20-24c-6-2-12-4-18-7c-4-2-9-3-14-3c-6 0-12 1-17 5l-42 28l-31-31l28-42c6-9 7-21 2-31c-3-6-5-12-7-18c-4-10-13-18-24-20l-49-10l0-44l49-10c11-2 20-10 24-20c2-6 4-12 7-18c5-10 4-22-2-31l-28-42l31-31l42 28c5 4 11 5 17 5c5 0 10-1 14-3c6-2 12-5 18-7c10-4 18-13 20-24l10-49l44 0l10 49c2 11 10 20 20 24c6 2 12 4 18 7c4 2 9 3 14 3c6 0 12-1 17-5l42-28l31 31l-28 42c-6 9-7 21-2 31c2 6 5 12 7 18c4 10 13 18 24 20l49 10l0 44z m-175-144c-62 0-112 50-112 112c0 62 50 112 112 112c62 0 112-50 112-112c0-62-50-112-112-112z m0 210c-54 0-98-44-98-98c0-54 44-98 98-98c54 0 98 44 98 98c0 54-44 98-98 98z m0-162c-35 0-64 29-64 64c0 35 29 64 64 64c35 0 64-29 64-64c0-35-29-64-64-64z m0 112c-26 0-48-21-48-48c0-26 22-48 48-48c26 0 48 22 48 48c0 27-22 48-48 48z"/>
    </symbol>
  
    <symbol id="icon-search" viewBox="0 0 512 512">
      <path d="m320 0c-106 0-192 86-192 192c0 32 8 63 22 90l-133 133l0 0c-11 11-17 25-17 41c0 31 25 56 56 56c16 0 30-6 41-17l0 0l133-133c27 14 58 22 90 22c106 0 192-86 192-192c0-106-86-192-192-192z m-243 475c-5 5-13 9-21 9c-15 0-28-13-28-28c0-8 4-15 9-21l0 0l129-129c11 15 25 29 40 40z m243-123c-88 0-160-72-160-160c0-88 72-160 160-160c88 0 160 72 160 160c0 88-72 160-160 160z m0-272c-62 0-112 50-112 112c0 4 4 8 8 8c4 0 8-4 8-8c0-53 43-96 96-96c4 0 8-4 8-8c0-4-4-8-8-8z"/>
    </symbol>
  
    <symbol id="icon-paperplane" viewBox="0 0 512 512">
      <path d="m505 3c-3-2-6-3-9-3c-3 0-6 1-9 3l-480 320c-5 3-8 9-7 15c1 6 5 11 10 13l125 50l59 103c3 5 8 8 14 8c0 0 0 0 0 0c6 0 11-3 14-8l33-55l155 62c2 1 4 1 6 1c3 0 5-1 8-2c4-2 7-7 8-11l80-480c1-7-2-13-7-16z m-455 329l371-247l-270 289c-1-1-2-2-4-3z m113 53c0 0 0 0 0 0l303-325l-258 403z m240 89l-136-55c-3-1-7-2-10-2l210-326z"/>
    </symbol>
  
    <symbol id="icon-key" viewBox="0 0 512 512">
      <path d="m368 0c-88 0-160 72-160 160c0 21 4 40 11 58l-194 194c-6 6-9 11-9 20l0 48c0 17 15 32 32 32l48 0c9 0 14-3 20-9l23-23l37 0c18 0 32-14 32-32l0-32l32 0c18 0 32-14 32-32l0-38l38-37c18 7 37 11 58 11c88 0 160-72 160-160c0-88-72-160-160-160z m0 288c-24 0-46-7-65-18l-5 5l-18 18l-31 31c-6 6-9 14-9 22l0 38l-32 0c-18 0-32 14-32 32l0 32l-37 0c-9 0-17 3-23 9l-23 23l-45 0l0-46l187-186c0 0 0 0 0 0l23-23c-11-19-18-41-18-65c0-71 57-128 128-128c71 0 128 57 128 128c0 71-57 128-128 128z m93-156c-18-25-40-47-65-65c-4-3-9-4-14-2c-22 8-37 23-45 45c-1 2-1 4-1 5c0 3 1 7 3 9c18 25 40 47 65 65c4 3 9 4 14 2c22-8 37-23 45-45c1-2 1-3 1-5c0-3-1-7-3-9z m-48 44c-24-17-44-37-61-61c6-17 18-29 35-35c24 17 44 38 61 61c-6 17-18 29-35 35z"/>
    </symbol>
  
    <symbol id="icon-location" viewBox="0 0 512 512">
      <path d="m256 284c53 0 96-43 96-96c0-53-43-96-96-96c-53 0-96 43-96 96c0 53 43 96 96 96z m0-176c44 0 80 36 80 80c0 44-36 80-80 80c-44 0-80-36-80-80c0-44 36-80 80-80z m0-108c-106 0-192 85-192 192c0 112 96 227 166 307c0 0 12 13 25 13c0 0 2 0 2 0c13 0 25-13 25-13c70-80 166-195 166-307c0-107-86-192-192-192z m2 478c0 0-1 1-2 2c0-1-2-2-2-2c-59-68-158-182-158-286c0-88 72-160 160-160c88 0 160 72 160 160c0 104-99 218-158 286z"/>
    </symbol>
  
    <symbol id="icon-like" viewBox="0 0 512 512">
      <path d="m467 168c-20-6-67-6-136-7c3-15 4-29 4-53c0-57-42-108-79-108c-26 0-48 21-48 48c0 32-10 88-64 116c-4 2-15 7-17 8l1 1c-8-7-20-13-32-13l-48 0c-26 0-48 22-48 48l0 256c0 26 22 48 48 48l48 0c19 0 35-12 43-28c0 0 0 1 0 1c1 0 3 0 4 1c1 0 1 0 1 0c9 2 27 6 65 15c8 2 51 11 95 11l88 0c27 0 46-10 57-31c0 0 4-7 7-17c2-7 3-18 0-28c18-12 23-30 27-42c6-19 4-33 0-43c9-9 18-23 21-44c2-14 0-27-6-38c9-11 13-23 14-35l0-4c0-2 0-3 0-8c0-20-14-45-45-54z m-355 296c0 9-7 16-16 16l-48 0c-9 0-16-7-16-16l0-256c0-9 7-16 16-16l48 0c9 0 16 7 16 16z m368-231c-1 7-4 23-32 23c-24 0-32 0-32 0c-4 0-8 4-8 8c0 4 4 8 8 8c0 0 7 0 31 0c24 0 27 20 26 30c-2 11-8 34-35 34c-27 0-38 0-38 0c-4 0-8 4-8 8c0 4 4 8 8 8c0 0 19 0 32 0c27 0 24 21 20 33c-5 16-8 31-42 31c-12 0-26 0-26 0c-5 0-8 4-8 8c0 4 3 8 8 8c0 0 11 0 25 0c17 0 18 17 16 22c-2 7-4 12-4 12c-5 9-13 14-29 14l-88 0c-44 0-87-10-88-10c-67-16-70-17-74-18c0 0-14-2-14-14l0-221c0-7 5-14 13-17c1 0 2 0 3-1c73-30 95-97 96-151c0-8 6-16 16-16c17 0 47 34 47 76c0 38-2 44-15 84c160 0 159 2 173 6c17 5 19 20 19 24c0 6 0 5 0 11z m-408 183c-13 0-24 11-24 24c0 13 11 24 24 24c13 0 24-11 24-24c0-13-11-24-24-24z m0 32c-4 0-8-4-8-8c0-4 4-8 8-8c4 0 8 4 8 8c0 4-4 8-8 8z"/>
    </symbol>
  
    <symbol id="icon-lab" viewBox="0 0 512 512">
      <path d="m331 60c-8-8-18-12-28-12c-11 0-21 4-29 12l-22 22c-8 8-12 18-12 29c0 7 2 14 6 21l-217 87c-15 6-25 19-28 35c-3 15 2 31 13 43l204 201c8 9 20 14 32 14c1 0 1 0 2 0c3 0 6 0 9-1c16-3 29-14 35-29l86-214c6 4 14 6 22 6c10 0 20-4 28-11l22-23c8-8 12-18 12-28c0-11-4-21-12-29z m-64 410c-2 5-7 9-12 10c-1 0-3 0-4 0c-4 0-8-2-11-5l-203-201c-4-4-6-9-5-14c1-6 5-10 10-12l99-40c67 22 134 1 201 72z m165-253l-23 23c-3 3-8 3-11 0l-28-28l-23 57l2-5c-49-48-97-54-142-59c-14-2-28-4-41-7l136-54l-28-28c-3-3-3-8 0-11l23-23c3-3 8-3 11 0l124 124c3 3 3 8 0 11z m-168 119c22 0 40-18 40-40c0-22-18-40-40-40c-22 0-40 18-40 40c0 22 18 40 40 40z m0-64c13 0 24 11 24 24c0 13-11 24-24 24c-13 0-24-11-24-24c0-13 11-24 24-24z m208-272c-22 0-40 18-40 40c0 22 18 40 40 40c22 0 40-18 40-40c0-22-18-40-40-40z m0 64c-13 0-24-11-24-24c0-13 11-24 24-24c13 0 24 11 24 24c0 13-11 24-24 24z m-344 208c0 18 14 32 32 32c18 0 32-14 32-32c0-18-14-32-32-32c-18 0-32 14-32 32z m32-16c9 0 16 7 16 16c0 9-7 16-16 16c-9 0-16-7-16-16c0-9 7-16 16-16z m64 112c0 9-7 16-16 16c-9 0-16-7-16-16c0-9 7-16 16-16c9 0 16 7 16 16z m256-240c0 9-7 16-16 16c-9 0-16-7-16-16c0-9 7-16 16-16c9 0 16 7 16 16z"/>
    </symbol>
  
    <symbol id="icon-lock" viewBox="0 0 512 512">
      <path d="m400 208l0-64c0-80-64-144-144-144c-80 0-144 64-144 144l0 64c-27 0-48 21-48 48l0 112c0 80 64 144 144 144l96 0c80 0 144-64 144-144l0-112c0-27-22-48-48-48z m-256-64c0-62 50-112 112-112c62 0 112 50 112 112l0 64l-32 0l0-64c0-44-36-80-80-80c-44 0-80 36-80 80l0 64l-32 0z m176 0l0 64l-128 0l0-64c0-35 29-64 64-64c35 0 64 29 64 64z m96 160l0 64c0 62-50 112-112 112l-96 0c-62 0-112-50-112-112l0-112c0-9 7-16 16-16c11 0 21 0 32 0l224 0c11 0 21 0 32 0c9 0 16 7 16 16z m-160 0c-18 0-32 14-32 32c0 10 5 28 11 43c4 12 9 21 21 21c13 0 17-9 21-21c6-15 11-33 11-43c0-18-14-32-32-32z"/>
    </symbol>
  
    <symbol id="icon-data" viewBox="0 0 512 512">
      <path d="m256 0c-108 0-224 33-224 104l0 304c0 71 116 104 224 104c108 0 224-33 224-104l0-304c0-71-116-104-224-104z m192 408c0 40-86 72-192 72c-106 0-192-32-192-72l0-60c33 34 113 52 192 52c79 0 159-18 192-52z m0-96l0 0c0 0 0 0 0 0c0 40-86 72-192 72c-106 0-192-32-192-72c0 0 0 0 0 0l0 0l0-60c33 34 113 52 192 52c79 0 159-18 192-52z m0-96l0 0c0 0 0 0 0 0c0 40-86 72-192 72c-106 0-192-32-192-72c0 0 0 0 0 0l0 0l0-55c42 32 119 47 192 47c73 0 150-15 192-47z m-192-40c-106 0-192-32-192-72c0-40 86-72 192-72c106 0 192 32 192 72c0 40-86 72-192 72z m160 240c0 9-7 16-16 16c-9 0-16-7-16-16c0-9 7-16 16-16c9 0 16 7 16 16z m0-96c0 9-7 16-16 16c-9 0-16-7-16-16c0-9 7-16 16-16c9 0 16 7 16 16z m0-96c0 9-7 16-16 16c-9 0-16-7-16-16c0-9 7-16 16-16c9 0 16 7 16 16z"/>
    </symbol>
  
    <symbol id="icon-angle-double-left" viewBox="0 0 512 512">
      <path d="m289 393c0 3-1 5-3 7l-14 14c-2 2-4 3-7 3-2 0-5-1-6-3l-134-133c-1-2-2-4-2-7 0-2 1-4 2-6l134-133c1-2 4-3 6-3 3 0 5 1 7 3l14 14c2 2 3 4 3 6 0 3-1 5-3 7l-112 112 112 113c2 1 3 4 3 6z m110 0c0 3-1 5-3 7l-15 14c-1 2-4 3-6 3-3 0-5-1-7-3l-133-133c-2-2-3-4-3-7 0-2 1-4 3-6l133-133c2-2 4-3 7-3 2 0 5 1 6 3l15 14c2 2 3 4 3 6 0 3-1 5-3 7l-113 112 113 113c2 1 3 4 3 6z"/>
    </symbol>
  
    <symbol id="icon-angle-double-right" viewBox="0 0 512 512">
      <path d="m280 274c0 3-1 5-3 7l-133 133c-2 2-4 3-7 3-2 0-5-1-6-3l-15-14c-2-2-3-4-3-7 0-2 1-5 3-6l113-113-113-112c-2-2-3-4-3-7 0-2 1-4 3-6l15-14c1-2 4-3 6-3 3 0 5 1 7 3l133 133c2 2 3 4 3 6z m109 0c0 3-1 5-2 7l-134 133c-1 2-4 3-6 3-3 0-5-1-7-3l-14-14c-2-2-3-4-3-7 0-2 1-5 3-6l112-113-112-112c-2-2-3-4-3-7 0-2 1-4 3-6l14-14c2-2 4-3 7-3 2 0 5 1 6 3l134 133c1 2 2 4 2 6z"/>
    </symbol>
  
    <symbol id="icon-angle-double-up" viewBox="0 0 512 512">
      <path d="m399 375c0 2-1 5-3 6l-15 15c-1 2-4 3-6 3-3 0-5-1-7-3l-112-113-112 113c-2 2-4 3-7 3-2 0-5-1-6-3l-15-15c-2-1-3-4-3-6 0-3 1-5 3-7l133-133c2-2 5-3 7-3 2 0 5 1 7 3l133 133c2 2 3 4 3 7z m0-110c0 3-1 5-3 7l-15 14c-1 2-4 3-6 3-3 0-5-1-7-3l-112-112-112 112c-2 2-4 3-7 3-2 0-5-1-6-3l-15-14c-2-2-3-4-3-7 0-2 1-5 3-6l133-134c2-1 5-2 7-2 2 0 5 1 7 2l133 134c2 1 3 4 3 6z"/>
    </symbol>
  
    <symbol id="icon-angle-down" viewBox="0 0 512 512">
      <path d="m399 210c0 3-1 5-3 7l-133 133c-2 2-5 3-7 3-2 0-5-1-7-3l-133-133c-2-2-3-4-3-7 0-2 1-4 3-6l15-15c1-1 4-2 6-2 3 0 5 1 7 2l112 113 112-113c2-1 4-2 7-2 2 0 5 1 6 2l15 15c2 2 3 4 3 6z"/>
    </symbol>
  
    <symbol id="icon-angle-left" viewBox="0 0 512 512">
      <path d="m344 155c0 3-1 5-3 7l-112 112 112 113c2 1 3 4 3 6 0 3-1 5-3 7l-14 14c-2 2-5 3-7 3-2 0-5-1-7-3l-133-133c-2-2-3-4-3-7 0-2 1-4 3-6l133-133c2-2 5-3 7-3 2 0 5 1 7 3l14 14c2 2 3 4 3 6z"/>
    </symbol>
  
    <symbol id="icon-angle-up" viewBox="0 0 512 512">
      <path d="m399 338c0 3-1 5-3 7l-15 14c-1 2-4 3-6 3-3 0-5-1-7-3l-112-112-112 112c-2 2-4 3-7 3-2 0-5-1-6-3l-15-14c-2-2-3-4-3-7 0-2 1-4 3-6l133-133c2-2 5-3 7-3 2 0 5 1 7 3l133 133c2 2 3 4 3 6z"/>
    </symbol>
  
    <symbol id="icon-angle-right" viewBox="0 0 512 512">
      <path d="m335 274c0 3-1 5-3 7l-133 133c-2 2-5 3-7 3-2 0-5-1-7-3l-14-14c-2-2-3-4-3-7 0-2 1-5 3-6l112-113-112-112c-2-2-3-4-3-7 0-2 1-4 3-6l14-14c2-2 5-3 7-3 2 0 5 1 7 3l133 133c2 2 3 4 3 6z"/>
    </symbol>
  
    <symbol id="icon-bolt" viewBox="0 0 512 512">
      <path d="m381 162c3 4 4 8 2 12l-154 331c-3 5-7 7-12 7-1 0-3 0-4-1-4-1-6-2-8-5-1-3-2-6-1-9l56-230-116 28c0 1-2 1-3 1-4 0-7-1-9-3-3-3-5-7-4-12l58-235c0-3 2-5 4-7 3-2 5-2 8-2l94 0c4 0 7 1 9 3 3 3 4 5 4 9 0 1-1 3-2 5l-48 132 113-28c1 0 2-1 3-1 4 0 7 2 10 5z"/>
    </symbol>
  
    <symbol id="icon-check" viewBox="0 0 512 512">
      <path d="m477 162c0 7-2 14-8 19l-206 207-39 39c-6 5-12 8-20 8-7 0-14-3-19-8l-142-142c-6-6-8-12-8-20 0-7 2-14 8-19l38-39c6-5 12-8 20-8 7 0 14 3 19 8l84 84 188-188c5-5 12-8 19-8 8 0 14 3 20 8l38 39c6 6 8 12 8 20z"/>
    </symbol>
  
    <symbol id="icon-cc-discover" viewBox="0 0 512 512">
      <path d="m16 222c0 10-3 18-10 24-6 5-14 7-25 7l-5 0 0-62 5 0c11 0 20 2 25 7 7 6 10 14 10 24z m508-19c0 10-6 15-19 15l-5 0 0-29 6 0c12 0 18 5 18 14z m-489 19c0-14-4-26-14-34-9-9-22-14-37-14l-27 0 0 95 27 0c14 0 26-3 34-10 12-10 17-22 17-37z m9 47l19 0 0-95-19 0z m91-28c0-8-2-14-5-18-4-4-12-8-22-12-6-2-9-4-11-6-2-1-3-3-3-6 0-3 1-6 4-8 2-2 5-3 9-3 6 0 11 3 16 8l9-13c-8-7-17-10-28-10-8 0-15 2-21 8-6 5-8 11-8 19 0 7 1 12 5 16 3 4 9 7 18 10 7 3 11 5 13 6 3 2 5 5 5 9 0 4-1 7-4 10-2 3-6 4-10 4-9 0-16-4-20-13l-12 12c8 12 19 18 33 18 9 0 17-3 23-9 6-6 9-13 9-22z m80 25l0-22c-7 7-15 11-22 11-10 0-17-3-23-9-6-7-9-14-9-24 0-9 3-17 9-23 6-7 13-10 22-10 8 0 16 4 23 11l0-22c-8-4-15-6-23-6-14 0-26 5-36 15-10 9-15 21-15 35 0 14 5 26 15 35 10 10 22 15 36 15 8 0 15-2 23-6z m352 173l0-151c-13 8-26 16-41 24-16 9-38 20-68 34-30 14-62 27-94 39-33 12-73 25-120 38-47 14-95 25-144 34l449 0c5 0 9-2 12-5 4-4 6-8 6-13z m-243-216c0-15-5-27-15-37-11-10-23-15-37-15-14 0-26 5-37 15-10 10-15 22-15 37 0 14 5 26 15 36 11 10 23 15 37 15 14 0 26-5 37-15 10-10 15-22 15-36z m43 49l41-98-20 0-26 64-25-64-20 0 40 98z m50-3l52 0 0-16-34 0 0-25 33 0 0-16-33 0 0-21 34 0 0-17-52 0z m111 0l23 0-30-40c15-3 22-12 22-26 0-9-3-16-9-21-6-5-14-8-25-8l-28 0 0 95 19 0 0-38 3 0z m57-194l0 362c0 11-4 20-11 27-7 8-16 11-27 11l-582 0c-11 0-20-3-27-11-7-7-11-16-11-27l0-362c0-11 4-20 11-27 7-8 16-11 27-11l582 0c11 0 20 3 27 11 7 7 11 16 11 27z"/>
    </symbol>
  
    <symbol id="icon-cc-jcb" viewBox="0 0 512 512">
      <path d="m484 285c0 5-1 9-4 13-3 3-7 6-11 7-2 0-3 0-5 0l-44 0 0-40 44 0c2 0 3 0 5 1 4 1 8 3 11 6 3 4 4 8 4 13z m-5-61c0 5-1 9-4 12-3 4-7 6-11 6-1 0-2 1-4 1l-40 0 0-37 40 0c0 0 1 0 2 1 1 1 2 2 2 2 4 0 8 2 11 6 3 3 4 7 4 12z m-344 47l0-88-65 0 0 88c0 11-4 20-11 27-7 7-17 11-30 11-21 0-43-6-66-17l0 32c11 3 22 5 35 6 13 2 23 3 31 3l12 0c63 0 94-21 94-62z m204 53l0-33c-19 10-38 16-57 17-21 2-37-2-49-11-11-10-17-23-17-41 0-18 6-31 17-41 12-9 28-13 49-11 19 1 38 7 57 16l0-32c-9-2-19-4-29-5-10-2-17-3-23-3l-8-1c-24-1-45 1-62 4-17 4-31 10-40 18-9 7-16 16-20 25-5 9-7 19-7 30 0 11 2 21 7 30 4 9 11 18 20 25 9 8 23 14 40 18 17 3 38 5 62 4 20-1 39-4 60-9z m210-33c0-10-5-19-13-25-8-7-18-11-31-12l0-1c11-1 19-5 26-11 6-7 9-14 9-23 0-11-4-19-12-25-8-7-18-10-31-11 0 0-1 0-3 0-2 0-3 0-4 0l-130 0 0 146 140 0c14 0 26-4 35-11 9-7 14-16 14-27z m36-218l0 366c0 10-3 18-11 26-7 7-16 10-25 10l-586 0c-9 0-18-3-25-10-8-8-11-16-11-26l0-366c0-10 3-18 11-26 7-7 16-10 25-10l586 0c9 0 18 3 25 10 8 8 11 16 11 26z"/>
    </symbol>
  
    <symbol id="icon-cc-mastercard" viewBox="0 0 512 512">
      <path d="m119 267l-4 0c-9 0-14 3-14 9 0 4 2 6 6 6 3 0 6-1 8-4 2-3 3-7 4-11z m112-11l18 0 0-1c0 0 0-1 0-1 0-1 0-2 0-2 0-1 0-2-1-3 0 0-1-1-1-2-1 0-1-1-2-1-1 0-2-1-4-1-5 0-8 4-10 11z m155 11l-4 0c-9 0-13 3-13 9 0 4 1 6 5 6 4 0 6-1 8-4 2-3 4-7 4-11z m91-8c0-8-3-12-9-12-3 0-6 2-9 6-2 4-3 9-3 15 0 8 3 12 8 12 4 0 7-2 9-6 3-4 4-9 4-15z m-413-40l25 0-13 75-16 0 9-58-20 58-11 0-1-57-10 57-15 0 13-75 23 0 0 46z m72 30c0 2 0 6-1 12-3 20-5 30-5 33l-13 0 0-7c-4 5-9 8-16 8-5 0-8-2-11-5-3-3-4-7-4-12 0-7 2-13 7-17 5-4 12-6 21-6 3 0 5 0 7 0 0 0 0-1-1-1 0-1 0-1 1-2 0 0 0 0 1-1 0-3-3-5-10-5-6 0-11 1-17 3 0-1 1-6 2-14 7-2 14-3 19-3 14 0 21 6 21 17z m45-16l-2 14c-5-1-9-1-12-1-5 0-8 2-8 5 0 1 1 3 1 3 1 1 3 2 7 3 7 4 11 10 11 18 0 13-8 20-25 20-6 0-12-1-16-2 0 0 0-5 2-14 5 2 10 2 14 2 6 0 9-1 9-5 0-1 0-2-1-3-1-1-3-2-6-4-8-4-12-9-12-17 0-13 8-20 24-20 5 0 10 0 14 1z m25 0l8 0-2 15-8 0c-1 3-1 7-2 11-1 5-2 8-2 11-1 3-1 5-1 5 0 3 2 5 6 5 1 0 3 0 4-1l-2 14c-4 1-8 2-12 2-8 0-12-5-12-14 0-2 0-7 2-16 0-3 3-17 7-41l16 0z m58 21c0 4-1 9-2 15l-32 0c0 4 1 7 3 9 3 2 6 3 11 3 6 0 11-1 17-4l-3 16c-6 1-11 2-16 2-18 0-27-9-27-27 0-11 2-19 7-26 6-7 12-10 20-10 7 0 12 2 16 6 4 4 6 9 6 16z m40-21c-3 4-5 10-7 17-4 0-7 2-8 7-2 5-5 17-8 37l-16 0 1-4c4-25 7-44 9-57l14 0-1 9c3-4 5-7 8-8 2-2 4-2 8-1z m53-12l-2 16c-6-3-11-4-15-4-6 0-10 3-14 8-4 5-6 12-6 20 0 6 1 10 4 14 2 3 6 4 11 4 4 0 8-1 14-3l-3 17c-6 1-10 2-15 2-8 0-15-3-20-9-5-6-8-14-8-23 0-14 4-25 11-33 6-9 15-13 26-13 5 0 10 1 17 4z m46 28c0 4 0 8-1 12-2 15-4 26-5 33l-13 0 1-7c-4 5-10 8-17 8-5 0-8-2-11-5-3-3-4-7-4-12 0-7 3-13 7-17 5-4 12-6 21-6 3 0 5 0 7 0 0-1 0-2 0-4 0-3-3-5-10-5-6 0-11 1-17 3 0-1 1-6 2-14 8-2 14-3 20-3 13 0 20 6 20 17z m41-16c-3 4-5 10-6 17-5 0-8 2-9 7-2 5-4 17-8 37l-16 0 1-4c4-20 7-39 9-57l14 0c0 2 0 5-1 9 3-4 6-7 8-8 2-2 5-2 8-1z m40-14l16 0-12 75-15 0 0-6c-4 5-9 7-14 7-6 0-11-2-15-7-3-5-5-11-5-18 0-10 3-19 8-27 5-7 11-11 18-11 6 0 11 3 16 9z m32 37c0-28-7-54-21-78-14-24-33-43-57-57-23-13-50-20-78-20-34 0-65 10-93 31 24 22 40 49 48 81l-14 0c-8-28-23-53-45-72-22 19-37 44-45 72l-14 0c8-32 24-59 48-81-28-21-59-31-93-31-28 0-55 7-78 20-24 14-43 33-57 57-14 24-21 50-21 78 0 28 7 54 21 78 14 24 33 43 57 57 23 13 50 20 78 20 34 0 65-10 93-31-22-21-38-46-47-75l15 0c8 26 23 48 43 66 20-18 35-40 43-66l15 0c-9 29-25 54-47 75 28 21 59 31 93 31 28 0 55-7 78-20 24-14 43-33 57-57 14-24 21-50 21-78z m69-183l0 366c0 10-3 18-11 26-7 7-16 10-25 10l-586 0c-9 0-18-3-25-10-8-8-11-16-11-26l0-366c0-10 3-18 11-26 7-7 16-10 25-10l586 0c9 0 18 3 25 10 8 8 11 16 11 26z"/>
    </symbol>
  
    <symbol id="icon-cc-paypal" viewBox="0 0 512 512">
      <path d="m140 259c0 7-3 13-8 17-4 5-10 7-17 7-6 0-10-1-14-4-3-3-5-7-5-13 0-7 3-13 7-18 5-4 11-7 18-7 5 0 10 2 13 5 4 3 6 7 6 13z m224-43c0 8-2 14-6 17-4 2-11 4-19 4l-9 0 5-30c0-3 1-4 3-4l5 0c5 0 8 1 10 1 3 0 5 2 8 4 2 2 3 4 3 8z m100 43c0 7-2 13-7 17-5 5-11 7-18 7-5 0-10-1-13-4-3-3-5-7-5-13 0-7 2-13 7-18 5-4 11-7 18-7 5 0 9 2 13 5 4 3 5 7 5 13z m-391-49c0-11-3-19-11-24-7-5-16-8-28-8l-46 0c-4 0-6 2-6 5l-19 117c0 1 1 2 1 3 1 1 2 2 3 2l22 0c4 0 6-2 6-6l5-31c0-2 1-3 2-4 1-1 3-2 5-2 1 0 3 0 4 0 2 0 4 0 6 0 2 0 3 0 4 0 16 0 29-4 38-14 10-9 14-22 14-38z m89 89l11-74c1-2 0-3 0-4-1-1-2-1-3-1l-22 0c-3 0-4 3-5 9-5-7-14-11-27-11-14 0-25 5-35 15-10 11-14 23-14 37 0 11 3 20 9 27 7 6 16 10 27 10 5 0 11-2 16-4 6-2 11-5 14-9-1 2-1 4-1 6 0 3 1 5 4 5l19 0c4 0 6-2 7-6z m127-75c0-1 0-2-1-3 0-1-1-1-2-1l-22 0c-2 0-4 1-5 3l-31 44-12-42c-1-3-3-5-7-5l-21 0c-1 0-2 0-3 1 0 1-1 2-1 3 0 0 2 6 6 17 4 11 8 22 12 35 4 13 6 19 7 20-16 21-24 33-24 34 0 3 1 4 4 4l22 0c2 0 4-1 5-3l73-105c0 0 0-1 0-2z m109-14c0-11-4-19-11-24-7-5-17-8-29-8l-45 0c-4 0-6 2-6 5l-19 117c0 1 0 2 1 3 1 1 2 2 3 2l23 0c2 0 4-2 5-4l5-33c0-2 1-3 2-4 1-1 2-2 4-2 2 0 3 0 5 0 2 0 3 0 5 0 3 0 4 0 4 0 17 0 30-4 39-14 9-9 14-22 14-38z m88 89l12-74c0-2 0-3-1-4-1-1-2-1-3-1l-21 0c-3 0-5 3-5 9-5-7-14-11-27-11-14 0-26 5-35 15-10 11-15 23-15 37 0 11 3 20 10 27 7 6 15 10 26 10 6 0 12-2 17-4 6-2 10-5 14-9 0 0 0 1-1 3 0 1 0 2 0 3 0 3 1 5 3 5l20 0c4 0 6-2 6-6z m63-117l0 0c0-3-2-4-4-4l-21 0c-2 0-4 1-4 3l-19 119 0 1c0 1 1 1 1 2 1 1 2 2 3 2l19 0c4 0 6-2 6-6z m-510 39c-1 6-4 11-8 13-4 2-9 3-17 3l-9 0 5-30c0-3 1-4 3-4l6 0c7 0 13 2 16 4 4 2 5 7 4 14z m546-148l0 366c0 10-3 18-11 26-7 7-16 10-25 10l-586 0c-9 0-18-3-25-10-8-8-11-16-11-26l0-366c0-10 3-18 11-26 7-7 16-10 25-10l586 0c9 0 18 3 25 10 8 8 11 16 11 26z"/>
    </symbol>
  
    <symbol id="icon-cc-stripe" viewBox="0 0 512 512">
      <path d="m383 258c0 13-2 23-6 30-3 7-8 10-15 10-4 0-8-1-11-2l0-64c5-6 11-9 16-9 11 0 16 12 16 35z m125-10l-31 0c1-19 6-28 16-28 10 0 15 9 15 28z m-445 38c0-11-3-20-10-26-6-6-15-12-28-16-7-3-12-5-15-7-3-2-5-5-5-7 0-5 4-8 11-8 11 0 23 3 35 10l6-32c-13-6-27-9-43-9-15 0-26 3-35 10-9 8-14 18-14 32 0 11 3 19 9 25 7 7 16 12 29 17 7 2 12 5 15 7 3 2 5 5 5 8 0 6-5 9-14 9-5 0-12-2-20-4-8-2-15-5-20-9l-6 33c14 7 30 11 48 11 16 0 28-3 37-10 10-8 15-19 15-34z m84-61l6-32-28 0 0-38-37 6-5 32-13 2-5 30 18 0 0 62c0 16 4 28 12 35 8 5 18 8 32 8 6 0 14-1 23-3l0-34c-6 2-11 2-13 2-8 0-12-4-12-14l0-56z m90 7l0-40c-2 0-5-1-8-1-6 0-11 2-15 5-5 3-8 7-10 13l-3-16-37 0 0 135 43 0 0-88c5-6 12-9 23-9 3 0 6 1 7 1z m11 96l43 0 0-135-43 0z m178-71c0-24-5-41-13-52-8-9-18-14-32-14-12 0-23 5-33 16l-3-14-37 0 0 184 43-7 0-43c6 2 13 3 19 3 16 0 29-5 38-16 12-12 18-31 18-57z m-134-100c0-6-2-11-7-16-4-4-9-6-16-6-6 0-11 2-16 6-4 5-6 10-6 16 0 6 2 12 6 16 5 5 10 7 16 7 7 0 12-2 16-7 5-4 7-10 7-16z m257 102c0-21-5-38-14-50-10-12-23-18-41-18-19 0-33 6-44 18-10 13-15 30-15 52 0 24 6 42 18 54 10 10 25 15 46 15 19 0 34-4 45-11l-4-30c-11 6-23 9-37 9-8 0-14-2-18-5-4-4-7-10-8-19l71 0c0-3 1-8 1-15z m36-186l0 366c0 10-3 18-11 26-7 7-16 10-25 10l-586 0c-9 0-18-3-25-10-8-8-11-16-11-26l0-366c0-10 3-18 11-26 7-7 16-10 25-10l586 0c9 0 18 3 25 10 8 8 11 16 11 26z"/>
    </symbol>
  
    <symbol id="icon-cc-visa" viewBox="0 0 512 512">
      <path d="m491 283l-39 0c2-7 9-24 19-51l0-3c1-2 2-4 3-7 1-3 2-6 3-8l3 16z m-412-19l-17-84c-2-10-9-15-21-15l-77 0-1 3c60 15 98 47 116 96z m51-99l-47 125-4-26c-5-13-13-25-25-37-11-11-23-19-37-25l38 146 50 0 75-183z m39 183l48 0 30-183-48 0z m220-179c-13-5-27-8-43-8-23 0-42 6-57 17-15 12-23 26-23 44 0 19 14 36 42 50 9 4 15 8 19 11 3 4 5 8 5 12 0 5-3 10-8 13-6 3-13 4-20 4-16 0-31-3-45-9l-6-3-6 41c14 6 31 10 52 10 25 0 45-6 60-17 15-12 23-27 23-46 0-20-13-37-40-50-9-4-16-8-20-12-4-3-7-7-7-11 0-4 3-7 7-11 5-3 12-4 21-4 13 0 25 2 35 7l4 2z m121-4l-36 0c-13 0-21 5-25 15l-70 168 49 0 10-27 61 0c1 4 3 13 6 27l44 0z m75-92l0 366c0 10-3 18-11 26-7 7-16 10-25 10l-586 0c-9 0-18-3-25-10-8-8-11-16-11-26l0-366c0-10 3-18 11-26 7-7 16-10 25-10l586 0c9 0 18 3 25 10 8 8 11 16 11 26z"/>
    </symbol>
  
    <symbol id="icon-github" viewBox="0 0 512 512">
      <path d="m475 256c0 48-14 91-41 129-28 38-64 65-109 79-5 1-8 1-11-2-2-2-3-5-3-8l0-61c0-18-5-32-15-40 11-1 20-3 29-5 9-3 18-6 27-11 9-6 17-12 23-19 6-8 11-18 15-30 4-13 6-27 6-43 0-23-8-43-23-59 7-18 7-37-2-59-5-1-13 0-23 4-10 3-19 8-26 12l-11 7c-18-5-36-7-55-7-19 0-37 2-55 7-3-2-7-5-12-8-5-3-13-6-24-11-11-4-19-5-24-4-9 22-9 41-2 59-15 16-23 36-23 59 0 16 2 30 6 42 4 13 9 23 15 30 6 8 14 14 23 20 9 5 18 8 27 11 8 2 18 4 29 5-8 7-12 17-14 29-4 2-8 4-13 5-4 1-10 1-16 1-6 0-13-2-19-6-6-4-11-10-16-18-3-6-8-11-14-15-5-4-10-6-14-7l-5-1c-4 0-7 1-9 2-1 1-2 2-1 3 0 1 1 3 2 4 2 1 3 2 4 3l2 2c4 2 8 5 13 11 4 5 7 10 9 14l2 7c3 7 7 13 13 17 6 5 12 8 19 9 7 1 14 2 20 2 6 0 12 0 16-1l6-1c0 7 0 16 1 25 0 10 0 15 0 16 0 3-2 6-4 8-2 3-6 3-11 2-45-14-81-41-109-79-27-38-41-81-41-129 0-40 9-77 29-110 20-34 46-60 80-80 33-20 70-29 110-29 40 0 77 9 110 29 34 20 60 46 80 80 20 33 29 70 29 110z"/>
    </symbol>
  
    <symbol id="icon-github-alt" viewBox="0 0 512 512">
      <path d="m201 347c0 8-1 16-3 24-3 8-7 15-13 22-6 6-12 9-20 9-8 0-15-3-21-9-6-7-10-14-12-22-3-8-4-16-4-24 0-7 1-15 4-23 2-8 6-15 12-22 6-6 13-9 21-9 8 0 14 3 20 9 6 7 10 14 13 22 2 8 3 16 3 23z m183 0c0 8-1 16-4 24-2 8-6 15-12 22-6 6-13 9-21 9-8 0-14-3-20-9-6-7-10-14-13-22-2-8-3-16-3-24 0-7 1-15 3-23 3-8 7-15 13-22 6-6 12-9 20-9 8 0 15 3 21 9 6 7 10 14 12 22 3 8 4 16 4 23z m46 0c0-22-7-42-20-58-13-16-31-24-53-24-8 0-27 2-56 6-14 2-29 3-45 3-16 0-31-1-45-3-29-4-47-6-56-6-22 0-40 8-53 24-13 16-20 36-20 58 0 17 3 32 9 44 7 13 14 23 24 30 9 7 21 13 34 17 14 4 28 7 40 8 13 2 27 2 43 2l48 0c16 0 30 0 43-2 12-1 26-4 40-8 13-4 25-10 34-17 10-7 17-17 24-30 6-12 9-27 9-44z m64-50c0 40-6 71-18 95-7 14-17 27-30 38-13 10-26 19-40 24-14 6-30 11-49 14-18 3-34 5-49 6-14 1-30 1-47 1-15 0-29 0-41 0-12-1-26-2-42-4-16-2-31-5-44-9-13-3-26-8-39-14-13-6-24-14-34-23-11-10-19-21-25-33-12-24-18-55-18-95 0-45 13-83 39-113-5-16-8-32-8-49 0-22 5-42 15-62 21 0 39 4 54 11 16 8 34 20 54 36 28-7 58-10 89-10 28 0 54 3 80 9 20-16 37-27 53-35 16-7 34-11 54-11 10 20 15 40 15 62 0 17-3 33-8 48 26 31 39 69 39 114z"/>
    </symbol>
  
    <symbol id="icon-bar-chart" viewBox="0 0 512 512">
      <path d="m146 256l0 146-73 0 0-146z m110-146l0 292-73 0 0-292z m293 329l0 36-586 0 0-438 37 0 0 402z m-183-256l0 219-73 0 0-219z m109-110l0 329-73 0 0-329z"/>
    </symbol>
  
    <symbol id="icon-bars" viewBox="0 0 512 512">
      <path d="m475 384l0 37c0 5-1 9-5 12-4 4-8 6-13 6l-402 0c-5 0-9-2-13-6-4-3-5-7-5-12l0-37c0-5 1-9 5-13 4-3 8-5 13-5l402 0c5 0 9 2 13 5 4 4 5 8 5 13z m0-146l0 36c0 5-1 10-5 13-4 4-8 6-13 6l-402 0c-5 0-9-2-13-6-4-3-5-8-5-13l0-36c0-5 1-10 5-13 4-4 8-6 13-6l402 0c5 0 9 2 13 6 4 3 5 8 5 13z m0-147l0 37c0 5-1 9-5 13-4 3-8 5-13 5l-402 0c-5 0-9-2-13-5-4-4-5-8-5-13l0-37c0-5 1-9 5-12 4-4 8-6 13-6l402 0c5 0 9 2 13 6 4 3 5 7 5 12z"/>
    </symbol>
  
    <symbol id="icon-angle-double-down" viewBox="0 0 512 512">
      <path d="m399 247c0 2-1 5-3 6l-133 134c-2 1-5 2-7 2-2 0-5-1-7-2l-133-134c-2-1-3-4-3-6 0-3 1-5 3-7l15-14c1-2 4-3 6-3 3 0 5 1 7 3l112 112 112-112c2-2 4-3 7-3 2 0 5 1 6 3l15 14c2 2 3 4 3 7z m0-110c0 3-1 5-3 7l-133 133c-2 2-5 3-7 3-2 0-5-1-7-3l-133-133c-2-2-3-4-3-7 0-2 1-5 3-6l15-15c1-2 4-3 6-3 3 0 5 1 7 3l112 113 112-113c2-2 4-3 7-3 2 0 5 1 6 3l15 15c2 1 3 4 3 6z"/>
    </symbol>
  
    <symbol id="icon-envelope-o" viewBox="0 0 512 512">
      <path d="m475 430l0-220c-6 7-12 13-19 19-51 39-92 72-122 97-10 8-18 14-24 19-6 4-14 9-24 14-11 4-21 7-30 7l0 0c-9 0-19-3-30-7-10-5-18-10-24-14-6-5-14-11-24-19-30-25-71-58-122-97-7-6-13-12-19-19l0 220c0 2 0 4 2 6 2 2 4 3 7 3l420 0c3 0 5-1 7-3 2-2 2-4 2-6z m0-301l0-7 0-3-1-4-1-2-3-3-4 0-420 0c-3 0-5 1-7 2-2 2-2 4-2 7 0 32 14 59 42 81 36 29 75 59 114 91 1 1 5 3 10 8 6 5 10 8 13 11 4 2 8 5 13 9 5 3 10 6 14 8 5 1 9 2 13 2l0 0c4 0 8-1 13-2 4-2 9-5 14-8 5-4 9-7 13-9 3-3 7-6 13-11 5-5 9-7 10-8 39-32 78-62 114-91 11-8 20-19 29-33 9-14 13-26 13-38z m37-10l0 311c0 12-4 23-13 32-9 9-20 13-33 13l-420 0c-13 0-24-4-33-13-9-9-13-20-13-32l0-311c0-13 4-23 13-32 9-9 20-14 33-14l420 0c13 0 24 5 33 14 9 9 13 19 13 32z"/>
    </symbol>
  
    <symbol id="icon-exclamation-circle" viewBox="0 0 512 512">
      <path d="m256 37c40 0 77 9 110 29 34 20 60 46 80 80 20 33 29 70 29 110 0 40-9 77-29 110-20 34-46 60-80 80-33 20-70 29-110 29-40 0-77-9-110-29-34-20-60-46-80-80-20-33-29-70-29-110 0-40 9-77 29-110 20-34 46-60 80-80 33-20 70-29 110-29z m37 356l0-54c0-3-1-5-3-7-2-2-4-3-6-3l-55 0c-3 0-5 1-7 3-2 2-3 4-3 7l0 54c0 2 1 5 3 6 2 2 4 3 7 3l55 0c2 0 4-1 6-2 2-2 3-4 3-7z m-1-98l5-178c0-2-1-4-3-5-2-2-4-2-7-2l-62 0c-3 0-5 0-7 2-2 1-3 3-3 5l5 178c0 1 1 3 3 5 1 1 4 2 6 2l53 0c3 0 5-1 7-2 2-2 3-4 3-5z"/>
    </symbol>
  
    <symbol id="icon-exclamation-triangle" viewBox="0 0 512 512">
      <path d="m293 393l0-54c0-3-1-5-3-7-2-2-4-3-7-3l-54 0c-3 0-5 1-7 3-2 2-3 4-3 7l0 54c0 3 1 5 3 7 2 1 4 2 7 2l54 0c3 0 5-1 7-2 2-2 3-4 3-7z m-1-107l5-131c0-2-1-4-3-6-2-2-4-3-7-3l-62 0c-3 0-5 1-7 3-2 2-3 4-3 6l5 131c0 2 1 3 3 5 1 1 4 2 6 2l53 0c3 0 5-1 7-2 2-2 3-3 3-5z m-4-267l219 402c7 12 7 24 0 36-3 6-8 10-13 14-6 3-12 4-19 4l-438 0c-7 0-13-1-19-4-5-4-10-8-13-14-7-12-7-24 0-36l219-402c3-6 8-10 13-14 6-3 12-5 19-5 7 0 13 2 19 5 5 4 10 8 13 14z"/>
    </symbol>
  
    <symbol id="icon-eye" viewBox="0 0 512 512">
      <path d="m475 274c-29-45-65-78-108-101 11 20 17 42 17 65 0 35-13 65-38 90-25 25-55 38-90 38-35 0-65-13-90-38-25-25-38-55-38-90 0-23 6-45 17-65-43 23-79 56-108 101 25 39 57 70 95 94 38 23 79 34 124 34 45 0 86-11 124-34 38-24 70-55 95-94z m-205-109c0-4-2-7-4-10-3-3-6-4-10-4-24 0-44 8-61 25-17 17-26 38-26 62 0 4 1 7 4 9 3 3 6 4 10 4 4 0 7-1 10-4 2-2 4-5 4-9 0-17 5-31 17-42 12-12 26-18 42-18 4 0 7-1 10-4 2-2 4-6 4-9z m242 109c0 7-2 13-6 20-26 44-62 79-107 105-45 27-93 40-143 40-50 0-98-13-143-40-45-26-81-61-107-105-4-7-6-13-6-20 0-6 2-13 6-19 26-44 62-79 107-106 45-26 93-39 143-39 50 0 98 13 143 39 45 27 81 62 107 106 4 6 6 13 6 19z"/>
    </symbol>
  
    <symbol id="icon-eye-slash" viewBox="0 0 512 512">
      <path d="m159 381l22-40c-17-12-30-27-39-45-9-19-14-38-14-58 0-23 6-45 17-65-43 23-79 56-108 101 31 49 72 85 122 107z m111-216c0-4-2-7-4-10-3-3-6-4-10-4-24 0-44 8-61 25-17 17-26 38-26 62 0 4 1 7 4 9 3 3 6 4 10 4 4 0 7-1 10-4 2-2 4-5 4-9 0-17 5-31 17-42 12-12 26-18 42-18 4 0 7-1 10-4 2-2 4-6 4-9z m103-55c0 1 0 2 0 3-20 35-50 89-90 161-40 72-70 126-90 162l-14 26c-2 3-5 4-8 4-2 0-15-6-38-20-3-2-5-4-5-8 0-2 4-10 13-25-28-12-53-28-76-49-23-21-43-44-59-70-4-6-6-12-6-20 0-7 2-14 6-19 29-45 65-81 108-106 44-26 91-39 142-39 17 0 34 1 51 5l16-28c2-3 4-5 8-5 1 0 3 1 5 2 2 1 5 3 9 4 3 2 6 4 9 6 3 1 6 3 9 5 3 2 5 3 6 3 3 2 4 5 4 8z m11 128c0 26-8 50-23 72-15 22-35 38-59 47l80-143c1 8 2 16 2 24z m128 36c0 7-2 14-6 20-7 12-18 26-31 41-28 33-62 59-99 77-38 18-78 27-120 27l21-38c41-3 78-16 112-39 35-23 63-52 86-88-21-34-48-62-80-84l18-32c18 12 35 27 52 44 17 17 30 34 41 53 4 6 6 13 6 19z"/>
    </symbol>
  
    <symbol id="icon-facebook-official" viewBox="0 0 512 512">
      <path d="m451 37c7 0 13 2 17 7 5 4 7 10 7 17l0 390c0 7-2 13-7 17-4 5-10 7-17 7l-112 0 0-170 57 0 9-66-66 0 0-42c0-11 3-19 7-24 5-5 13-8 26-8l35 0 0-60c-12-1-29-2-51-2-26 0-46 7-62 23-15 15-23 36-23 64l0 49-57 0 0 66 57 0 0 170-210 0c-7 0-13-2-17-7-5-4-7-10-7-17l0-390c0-7 2-13 7-17 4-5 10-7 17-7z"/>
    </symbol>
  
    <symbol id="icon-film" viewBox="0 0 512 512">
      <path d="m91 457l0-36c0-5-1-10-5-13-4-4-8-6-13-6l-36 0c-5 0-10 2-13 6-4 3-6 8-6 13l0 36c0 5 2 9 6 13 3 4 8 5 13 5l36 0c5 0 9-1 13-5 4-4 5-8 5-13z m0-110l0-36c0-5-1-9-5-13-4-4-8-5-13-5l-36 0c-5 0-10 1-13 5-4 4-6 8-6 13l0 36c0 5 2 10 6 13 3 4 8 6 13 6l36 0c5 0 9-2 13-6 4-3 5-8 5-13z m0-109l0-37c0-5-1-9-5-13-4-3-8-5-13-5l-36 0c-5 0-10 2-13 5-4 4-6 8-6 13l0 37c0 5 2 9 6 13 3 3 8 5 13 5l36 0c5 0 9-2 13-5 4-4 5-8 5-13z m293 219l0-146c0-5-2-9-5-13-4-4-8-5-13-5l-220 0c-5 0-9 1-13 5-3 4-5 8-5 13l0 146c0 5 2 9 5 13 4 4 8 5 13 5l220 0c5 0 9-1 13-5 3-4 5-8 5-13z m-293-329l0-37c0-5-1-9-5-12-4-4-8-6-13-6l-36 0c-5 0-10 2-13 6-4 3-6 7-6 12l0 37c0 5 2 9 6 13 3 3 8 5 13 5l36 0c5 0 9-2 13-5 4-4 5-8 5-13z m403 329l0-36c0-5-2-10-6-13-3-4-8-6-13-6l-36 0c-5 0-9 2-13 6-4 3-5 8-5 13l0 36c0 5 1 9 5 13 4 4 8 5 13 5l36 0c5 0 10-1 13-5 4-4 6-8 6-13z m-110-219l0-147c0-5-2-9-5-12-4-4-8-6-13-6l-220 0c-5 0-9 2-13 6-3 3-5 7-5 12l0 147c0 5 2 9 5 13 4 3 8 5 13 5l220 0c5 0 9-2 13-5 3-4 5-8 5-13z m110 109l0-36c0-5-2-9-6-13-3-4-8-5-13-5l-36 0c-5 0-9 1-13 5-4 4-5 8-5 13l0 36c0 5 1 10 5 13 4 4 8 6 13 6l36 0c5 0 10-2 13-6 4-3 6-8 6-13z m0-109l0-37c0-5-2-9-6-13-3-3-8-5-13-5l-36 0c-5 0-9 2-13 5-4 4-5 8-5 13l0 37c0 5 1 9 5 13 4 3 8 5 13 5l36 0c5 0 10-2 13-5 4-4 6-8 6-13z m0-110l0-37c0-5-2-9-6-12-3-4-8-6-13-6l-36 0c-5 0-9 2-13 6-4 3-5 7-5 12l0 37c0 5 1 9 5 13 4 3 8 5 13 5l36 0c5 0 10-2 13-5 4-4 6-8 6-13z m36-46l0 384c0 13-4 24-13 33-9 9-20 13-32 13l-458 0c-12 0-23-4-32-13-9-9-13-20-13-33l0-384c0-12 4-23 13-32 9-9 20-13 32-13l458 0c12 0 23 4 32 13 9 9 13 20 13 32z"/>
    </symbol>
  
    <symbol id="icon-heart" viewBox="0 0 512 512">
      <path d="m256 475c-5 0-9-1-13-5l-178-172c-2-1-4-4-8-7-3-4-8-10-16-19-7-9-13-18-19-28-6-9-11-21-15-34-5-14-7-27-7-40 0-42 12-74 36-98 24-24 58-35 101-35 11 0 23 2 36 6 12 4 23 9 34 16 11 7 20 14 27 20 8 6 15 12 22 19 7-7 14-13 22-19 7-6 16-13 27-20 11-7 22-12 34-16 13-4 25-6 36-6 43 0 77 11 101 35 24 24 36 56 36 98 0 42-22 85-65 129l-178 171c-4 4-8 5-13 5z"/>
    </symbol>
  
    <symbol id="icon-heart-o" viewBox="0 0 512 512">
      <path d="m475 170c0-15-2-29-6-41-4-11-9-21-15-28-7-7-15-12-24-17-9-4-18-7-27-9-8-1-18-2-28-2-9 0-20 3-32 7-11 5-22 11-31 19-10 7-18 14-25 20-7 7-12 13-17 18-3 4-8 6-14 6-6 0-11-2-14-6-5-5-10-11-17-18-7-6-15-13-25-20-9-8-20-14-31-19-12-4-23-7-32-7-10 0-20 1-28 2-9 2-18 5-27 9-9 5-17 10-24 17-6 7-11 17-15 28-4 12-6 26-6 41 0 32 17 66 53 102l166 160 166-160c36-36 53-70 53-102z m37 0c0 42-22 85-65 129l-178 171c-4 4-8 5-13 5-5 0-9-1-13-5l-178-172c-2-1-4-4-8-7-3-4-8-10-16-19-7-9-13-18-19-28-6-9-11-21-15-34-5-14-7-27-7-40 0-42 12-74 36-98 24-24 58-35 101-35 11 0 23 2 36 6 12 4 23 9 34 16 11 7 20 14 27 20 8 6 15 12 22 19 7-7 14-13 22-19 7-6 16-13 27-20 11-7 22-12 34-16 13-4 25-6 36-6 43 0 77 11 101 35 24 24 36 56 36 98z"/>
    </symbol>
  
    <symbol id="icon-heartbeat" viewBox="0 0 512 512">
      <path d="m366 293l87 0c-1 1-2 2-3 3-1 0-2 1-3 2l0 1-178 171c-4 4-8 5-13 5-5 0-9-1-13-5l-178-172c-1 0-3-2-6-5l106 0c4 0 8-2 11-4 3-3 5-6 6-10l20-80 55 190c1 4 3 7 6 10 3 2 7 3 11 3 4 0 8-1 11-3 3-3 6-6 7-10l41-138 16 32c4 6 9 10 17 10z m146-123c0 28-10 56-29 86l-106 0-32-63c-1-3-4-6-7-8-3-2-7-3-10-2-9 1-14 5-16 13l-37 123-56-196c-1-4-4-7-7-10-3-2-7-3-11-3-4 0-8 1-11 4-4 2-6 5-7 9l-33 133-121 0c-19-30-29-58-29-86 0-42 12-74 36-98 24-24 58-35 101-35 11 0 23 2 36 6 12 4 23 9 34 16 11 7 20 14 27 20 8 6 15 12 22 19 7-7 14-13 22-19 7-6 16-13 27-20 11-7 22-12 34-16 13-4 25-6 36-6 43 0 77 11 101 35 24 24 36 56 36 98z"/>
    </symbol>
  
    <symbol id="icon-home" viewBox="0 0 512 512">
      <path d="m421 283l0 138c0 5-2 9-6 12-3 4-8 6-13 6l-109 0 0-110-74 0 0 110-109 0c-5 0-10-2-13-6-4-3-6-7-6-12l0-138c0 0 0 0 0 0 0-1 0-1 0-1l164-136 165 136c0 0 0 1 0 1z m63-19l-17 21c-2 2-4 3-6 3l-1 0c-3 0-5-1-6-2l-198-165-198 165c-2 2-4 2-7 2-2 0-4-1-6-3l-17-21c-2-2-2-4-2-7 0-3 1-5 3-6l205-171c6-5 14-8 22-8 8 0 16 3 22 8l69 58 0-56c0-2 1-5 3-6 2-2 4-3 7-3l54 0c3 0 5 1 7 3 2 1 3 4 3 6l0 117 62 52c2 1 3 3 3 6 0 3 0 5-2 7z"/>
    </symbol>
  
    <symbol id="icon-play" viewBox="0 0 512 512">
      <path d="m450 265l-379 211c-5 2-8 2-11 1-4-2-5-6-5-11l0-420c0-5 1-9 5-11 3-1 6-1 11 1l379 211c5 3 7 6 7 9 0 3-2 6-7 9z"/>
    </symbol>
  
    <symbol id="icon-plus-circle" viewBox="0 0 512 512">
      <path d="m384 274l0-36c0-5-2-10-5-13-4-4-8-6-13-6l-73 0 0-73c0-5-2-9-6-13-3-3-8-5-13-5l-36 0c-5 0-10 2-13 5-4 4-6 8-6 13l0 73-73 0c-5 0-9 2-13 6-3 3-5 8-5 13l0 36c0 5 2 10 5 13 4 4 8 6 13 6l73 0 0 73c0 5 2 9 6 13 3 3 8 5 13 5l36 0c5 0 10-2 13-5 4-4 6-8 6-13l0-73 73 0c5 0 9-2 13-6 3-3 5-8 5-13z m91-18c0 40-9 77-29 110-20 34-46 60-80 80-33 20-70 29-110 29-40 0-77-9-110-29-34-20-60-46-80-80-20-33-29-70-29-110 0-40 9-77 29-110 20-34 46-60 80-80 33-20 70-29 110-29 40 0 77 9 110 29 34 20 60 46 80 80 20 33 29 70 29 110z"/>
    </symbol>
  
    <symbol id="icon-terminal" viewBox="0 0 512 512">
      <path d="m185 281l-133 133c-2 2-4 3-6 3-3 0-5-1-7-3l-14-14c-2-2-3-4-3-7 0-2 1-5 3-6l112-113-112-112c-2-2-3-4-3-7 0-2 1-4 3-6l14-14c2-2 4-3 7-3 2 0 4 1 6 3l133 133c2 2 3 4 3 6 0 3-1 5-3 7z m309 130l0 19c0 2-1 5-3 6-2 2-4 3-6 3l-275 0c-2 0-5-1-6-3-2-1-3-4-3-6l0-19c0-2 1-4 3-6 1-2 4-3 6-3l275 0c2 0 4 1 6 3 2 2 3 4 3 6z"/>
    </symbol>
  
    <symbol id="icon-flame" viewBox="0 0 512 512">
      <path d="m217 23c25 67 12 103-16 132-31 32-78 56-112 103-44 63-52 200 109 236-68-35-82-138-9-203-19 63 16 103 59 88 43-14 71 16 70 51-1 24-10 45-35 56 105-18 147-105 147-171 0-87-78-99-39-172-46 4-62 35-58 85 3 33-31 55-57 40-20-12-20-36-2-54 39-38 54-126-57-191z"/>
    </symbol>
  
    <symbol id="icon-globe" viewBox="0 0 512 512">
      <path d="m256 64c-106 0-192 86-192 192 0 106 86 192 192 192 13 0 26-1 38-4-5-2-6-20-1-30 6-11 23-40 6-49-17-10-12-14-23-25-10-11-6-13-6-16-3-9 10-24 10-26 1-1 1-7 1-8-1-2-8-7-10-7-2 0-3 3-5 3-3 1-14-7-17-8-2-2-3-7-7-10-3-4-4-1-9-3-5-2-22-8-35-13-13-6-14-13-14-18 0-6-8-13-12-18-3-6-4-13-5-12-2 2 7 22 5 22-1 1-4-5-8-10-3-5 4-2-8-26-12-24 4-36 5-48 1-12 10 5 5-3-5-8 0-25-3-31-4-6-25 7-25 7 0-6 18-16 31-25 14-9 22-2 32 1 11 4 11 3 8-1-4-3 1-5 10-3 8 1 10 11 23 10 12-1 1 2 3 5 1 4-2 3-11 9-8 6 1 6 15 16 15 11 10-7 9-15-2-8 11-1 11-1 9 6 7 0 13 2 7 2 25 17 25 17-22 12-8 14-5 16 4 3-7 9-7 9-5-5-6 0-9 1-3 2 0 6 0 6-16 3-12 19-12 23 0 4-10 10-12 16-3 5 6 18 2 18-5 1-10-18-36-11-8 2-26 11-17 30 10 18 25-5 31-3 5 3-2 15-1 15 1 0 15 0 16 16 1 16 21 15 25 15 4 1 19-11 21-12 2-1 10-8 28 3 18 10 27 9 33 13 7 4 2 13 8 16 6 2 29-1 35 8 6 10-24 58-33 63-10 5-14 17-23 25-10 8-23 17-35 25-11 6-13 18-18 21 86-19 150-95 150-187 0-106-86-192-192-192z m45 180c-3 1-8 6-21-2-14-8-23-6-24-8 0 0-1-3 5-3 12-2 27 11 30 11 3 0 5-4 11-2 6 2 2 3-1 4z m-63-161c-1-1 1-2 3-4 1-1 0-3 1-4 3-3 17-6 14 1-3 8-16 9-18 7z m34 25c-5-1-16-2-14-4 8-8-3-10-10-11-6 0-9-4-6-4 4-1 17 0 19 2 3 2 15 7 15 10 1 4 0 7-4 7z m40-2c-3 3-22-11-26-14-16-13-24-9-27-11-4-2-2-5 3-10 5-4 19 2 27 3 8 1 18 7 18 15 0 7 9 14 5 17z"/>
    </symbol>
  
    <symbol id="icon-graph" viewBox="0 0 512 512">
      <path d="m352 128l-96 0 0 320 96 0z m128 96l-96 0 0 224 96 0z m-448 256l0-64 32 0 0-32-32 0 0-64 32 0 0-32-32 0 0-64 32 0 0-32-32 0 0-64 32 0 0-32-32 0 0-64 32 0 0-32-64 0 0 512 512 0 0-32z m192-192l-96 0 0 160 96 0z"/>
    </symbol>
  
    <symbol id="icon-home-1" viewBox="0 0 512 512">
      <path d="m96 288l32 192 96 0 0-160 64 0 0 160 96 0 32-192-160-160z m320-96l0-128-64 0 0 64-96-96-256 256 64 0 192-192 192 192 64 0z"/>
    </symbol>
  
    <symbol id="icon-mark-github" viewBox="0 0 512 512">
      <path d="m256 0c-141 0-256 115-256 256 0 113 73 209 175 243 13 2 18-6 18-12 0-6-1-27-1-48-71 15-86-30-86-30-12-30-28-38-28-38-24-16 1-15 1-15 26 2 40 26 40 26 22 39 59 28 74 21 2-16 9-27 16-34-57-6-116-28-116-126 0-28 10-51 26-69-3-7-11-33 3-68 0 0 21-7 70 26 20-5 42-8 64-8 22 0 44 3 64 8 49-33 70-26 70-26 14 35 6 61 3 68 16 18 26 41 26 69 0 98-60 120-117 126 10 8 18 24 18 47 0 35-1 62-1 71 0 6 5 14 18 12 102-34 175-130 175-243 0-141-115-256-256-256z"/>
    </symbol>
  
    <symbol id="icon-trashcan" viewBox="0 0 512 512">
      <path d="m416 64l-128 0c0 0 0-12 0-16 0-9-7-16-16-16-9 0-16 7-16 16 0 9 0 16 0 16l-128 0c-18 0-32 14-32 32l0 32c0 18 14 32 32 32l0 288c0 18 14 32 32 32l224 0c18 0 32-14 32-32l0-288c18 0 32-14 32-32l0-32c0-18-14-32-32-32z m-32 368c0 9-7 16-16 16l-192 0c-9 0-16-7-16-16l0-272 32 0 0 240c0 9 7 16 16 16 9 0 16-7 16-16l0-240 32 0 0 240c0 9 7 16 16 16 9 0 16-7 16-16l0-240 32 0 0 240c0 9 7 16 16 16 9 0 16-7 16-16l0-240 32 0z m32-312c0 4-4 8-8 8l-272 0c-4 0-8-4-8-8l0-16c0-4 4-8 8-8l272 0c4 0 8 4 8 8z"/>
    </symbol>
  
    <symbol id="icon-x" viewBox="0 0 512 512">
      <path d="m416 160l-64-64-96 96-96-96-64 64 96 96-96 96 64 64 96-96 96 96 64-64-96-96z"/>
    </symbol>
  
    <symbol id="icon-bubble-comment-streamline-talk" viewBox="0 0 512 512">
      <path d="m480 43l-448 0c-18 0-32 14-32 32l0 277c0 18 14 32 32 32l32 0l0 100l100-100l316 0c18 0 32-14 32-32l0-277c0-18-14-32-32-32z m11 309c0 6-5 11-11 11l-324 0l-71 70l0-70l-53 0c-6 0-11-5-11-11l0-277c0-6 5-11 11-11l448 0c6 0 11 5 11 11z m-299-139c0 12-10 22-21 22c-12 0-22-10-22-22c0-11 10-21 22-21c11 0 21 10 21 21z m171 0c0 12-10 22-22 22c-11 0-21-10-21-22c0-11 10-21 21-21c12 0 22 10 22 21z m-86 0c0 12-9 22-21 22c-12 0-21-10-21-22c0-11 9-21 21-21c12 0 21 10 21 21z"/>
    </symbol>
  
    <symbol id="icon-coffee-streamline" viewBox="0 0 512 512">
      <path d="m373 512l-256 0c-5 0-10-4-10-10l-22-341c0-3 1-6 3-8c2-2 5-4 8-4l299 0c3 0 5 2 7 4c2 2 3 5 3 8l-21 341c0 6-5 10-11 10z m-246-21l236 0l20-320l-276 0z m289-320l-341 0c-6 0-11-5-11-11l0-85c0-6 5-11 11-11l341 0c6 0 11 5 11 11l0 85c0 6-5 11-11 11z m-331-22l320 0l0-64l-320 0z m310-64c0 0 0 0 0 0l-299 0c-3 0-7-1-9-4c-2-3-2-6-1-10l21-64c2-4 6-7 10-7l256 0c5 0 9 3 10 7l21 62c1 2 2 4 2 6c0 6-5 10-11 10z m-284-21l269 0l-14-43l-241 0z m278 192l-288 0c-6 0-10-5-10-11c0-6 4-10 10-10l288 0c6 0 11 4 11 10c0 6-5 11-11 11z m-280 107l272 0l0 21l-272 0z m168-43l-64 0c-6 0-10-5-10-11c0-6 4-10 10-10l64 0c6 0 11 4 11 10c0 6-5 11-11 11z"/>
    </symbol>
  
    <symbol id="icon-book-dowload-streamline" viewBox="0 0 512 512">
      <path d="m245 491l-170 0c-18 0-32-15-32-32l0-363c9 6 20 11 32 11l352 0l0 128c0 6 4 10 10 10c6 0 11-4 11-10l0-150l-373 0c-18 0-32-14-32-32c0-17 14-32 32-32l362 0c6 0 11-4 11-10c0-6-5-11-11-11l-362 0c-30 0-54 24-54 53l0 406c0 29 24 53 54 53l170 0c6 0 11-5 11-11c0-6-5-10-11-10z m118-235c-71 0-128 57-128 128c0 71 57 128 128 128c70 0 128-57 128-128c0-71-58-128-128-128z m0 235c-59 0-107-48-107-107c0-59 48-107 107-107c58 0 106 48 106 107c0 59-48 107-106 107z m35-104l-25 25l0-81c0-6-4-11-10-11c-6 0-11 5-11 11l0 81l-24-25c-5-4-11-4-16 0c-4 4-4 11 0 15l43 43c0 0 0 0 0 0l8 7l7-7c0 0 0 0 0 0l43-43c4-4 4-11 0-15c-4-4-11-4-15 0z m-323-344l352 0l0 21l-352 0z"/>
    </symbol>
  
    <symbol id="icon-home-house-streamline" viewBox="0 0 512 512">
      <path d="m437 288c-6 0-10 5-10 11l0 192l-107 0l0-139l-128 0l0 139l-107 0l0-203c0-6-4-11-10-11c-6 0-11 5-11 11l0 224l149 0l0-139l86 0l0 139l149 0l0-213c0-6-5-11-11-11z m72-18l-253-242l-253 242c-4 4-4 10 0 15c4 4 11 4 15 0l238-228l238 228c2 2 5 3 7 3c3 0 6-1 8-3c4-5 4-11 0-15z m-168-185l64 0l0 64c0 6 5 11 11 11c6 0 11-5 11-11l0-85l-86 0c-6 0-10 5-10 11c0 6 4 10 10 10z"/>
    </symbol>
  
    <symbol id="icon-lock-locker-streamline" viewBox="0 0 512 512">
      <path d="m245 338l0 57c0 6 5 10 11 10c6 0 11-4 11-10l0-57c6-3 10-10 10-18c0-12-9-21-21-21c-12 0-21 9-21 21c0 8 4 15 10 18z m139-146l0-64c0-71-57-128-128-128c-71 0-128 57-128 128l0 64l-64 0l0 320l384 0l0-320z m-235-64c0-59 48-107 107-107c59 0 107 48 107 107l0 64l-214 0z m278 363l-342 0l0-278l342 0z"/>
    </symbol>
  
    <symbol id="icon-locker-streamline-unlock" viewBox="0 0 512 512">
      <path d="m245 338l0 57c0 6 5 10 11 10c6 0 11-4 11-10l0-57c6-3 10-10 10-18c0-12-9-21-21-21c-12 0-21 9-21 21c0 8 4 15 10 18z m139-146l0-64c0-71-57-128-128-128c-71 0-128 57-128 128l21 0c0-59 48-107 107-107c59 0 107 48 107 107l0 64l-299 0l0 320l384 0l0-320z m43 299l-342 0l0-278l342 0z"/>
    </symbol>
  
    <symbol id="icon-music-note-streamline" viewBox="0 0 512 512">
      <path d="m192 110l0 253l-43 0c-35 0-64 28-64 64c0 35 29 64 64 64c34 0 64-30 64-64l0-228l192-77l0 177l-42 0c-36 0-64 28-64 64c0 35 28 64 64 64c34 0 64-30 64-64l0-347z m0 317c0 20-18 42-43 42c-23 0-42-19-42-42c0-24 19-43 42-43l43 0z m213-64c0 20-18 42-42 42c-24 0-43-19-43-42c0-24 19-43 43-43l42 0z m-192-187l0-51l192-77l0 51z"/>
    </symbol>
  
    <symbol id="icon-man-people-streamline-user" viewBox="0 0 512 512">
      <path d="m461 369l-130-36l0-38c38-29 64-78 64-135c0-88-62-160-139-160c-76 0-138 72-138 160c0 56 25 106 63 134l0 39l-131 36c-30 11-50 39-50 71l0 72l512 0l0-72c0-32-20-60-51-71z m-205-348c51 0 94 39 110 93c-4 4-10 6-18 6c-21-1-50-19-61-40l-10-17l-9 18c-9 18-25 28-46 32c-28 5-58-5-71-11c18-48 59-81 105-81z m-116 139c0-13 1-26 4-38c20 10 52 17 82 12c22-4 39-14 52-30c18 21 46 36 70 37c0 0 1 0 2 0c8 0 15-2 21-5c2 8 2 16 2 24c0 76-52 139-117 139c-64 0-116-63-116-139z m350 331l-468 0l0-51c0-23 14-43 34-50l147-41l0-42c16 9 34 13 53 13c19 0 37-4 53-12l0 41l146 41c21 7 35 27 35 50z"/>
    </symbol>
  
    <symbol id="icon-speech-streamline-talk-user" viewBox="0 0 512 512">
      <path d="m501 0l-320 0c-6 0-10 5-10 11l0 85c0 6 4 11 10 11c6 0 11-5 11-11l0-75l299 0l0 171l-64 0c-3 0-6 1-8 3l-67 67l0-59c0-6-5-11-11-11l-42 0c-6 0-11 5-11 11c0 6 5 10 11 10l32 0l0 75c0 4 2 8 6 10c2 0 3 1 4 1c3 0 6-1 8-3l82-83l70 0c6 0 11-4 11-10l0-192c0-6-5-11-11-11z m-200 412l-78-28l0-36c25-20 40-53 40-91c0-61-42-112-94-112c-53 0-95 51-95 112c0 40 17 75 44 94l0 33l-77 28c-25 9-41 32-41 58l0 42l341 0l0-42c0-26-16-49-40-58z m-132-245c35 0 64 31 72 71c-23 4-37-3-50-27l-10-17l-9 17c-7 14-33 27-54 27c-8 0-14-1-21-3c9-39 37-68 72-68z m-74 90c0 0 0-1 0-1c7 2 15 3 23 3c23 0 48-10 63-25c13 18 29 27 49 27c4 0 8-1 12-1c-1 48-34 88-73 88c-41 0-74-41-74-91z m225 234l-299 0l0-21c0-17 11-32 27-38l91-33l0-36c9 4 19 6 30 6c11 0 23-3 33-8l0 38l92 33c15 6 26 21 26 38z m85-374c0 6-4 11-10 11c-6 0-11-5-11-11c0-6 5-10 11-10c6 0 10 4 10 10z m-53 0c0 6-5 11-11 11c-6 0-10-5-10-11c0-6 4-10 10-10c6 0 11 4 11 10z m-53 0c0 6-5 11-11 11c-6 0-11-5-11-11c0-6 5-10 11-10c6 0 11 4 11 10z"/>
    </symbol>
  
    <symbol id="icon-map-pin-streamline" viewBox="0 0 512 512">
      <path d="m256 0c-94 0-171 77-171 171c0 90 156 316 162 326l9 12l9-12c6-10 162-236 162-326c0-94-77-171-171-171z m0 472c-33-50-149-229-149-301c0-83 67-150 149-150c82 0 149 67 149 150c0 72-116 251-149 301z m0-376c-41 0-75 33-75 75c0 41 34 74 75 74c41 0 75-33 75-74c0-42-34-75-75-75z m0 128c-29 0-53-24-53-53c0-30 24-54 53-54c29 0 53 24 53 54c0 29-24 53-53 53z"/>
    </symbol>
  
    <symbol id="icon-cloud-1" viewBox="0 0 512 512">
      <path d="m407 242c-18-66-74-113-139-113c-45 0-88 23-115 62c-8-2-15-3-23-3c-61 0-110 54-110 121c0 23 6 46 18 66c3 5 8 8 13 8l414 0c5 0 9-3 12-7c10-15 15-32 15-50c0-50-40-90-85-84z"/>
    </symbol>
  
    <symbol id="icon-chart-line" viewBox="0 0 512 512">
      <path d="m17 290c-14-4-20-13-16-29c3-14 12-20 27-16c0 0 50 12 50 12c0 0-26 41-26 41c0 0-35-8-35-8m455 6c4-4 10-6 16-6c7 1 12 3 16 8c11 11 11 22-1 33c0 0-128 115-128 115c-5 4-10 6-16 6c-5 0-9-2-14-5c0 0-146-112-146-112c0 0-28-8-28-8c0 0 26-40 26-40c0 0 18 4 18 4c4 1 7 2 8 4c0 0 135 104 135 104c0 0 114-103 114-103m-251-112c0 0-178 280-178 280c-4 8-11 12-20 12c-4 0-8-2-12-5c-5-3-9-8-10-14c-1-7 0-12 3-17c0 0 191-300 191-300c3-6 7-9 14-11c6-2 12-1 19 3c0 0 125 80 125 80c0 0 115-166 115-166c4-6 9-9 15-10c6-1 12 1 17 5c13 8 15 18 6 31c0 0-128 185-128 185c-9 12-19 14-32 6c0 0-125-79-125-79"/>
    </symbol>
  
    <symbol id="icon-facebook-squared" viewBox="0 0 512 512">
      <path d="m421 41c15 0 28 5 39 16c11 10 16 23 16 38c0 0 0 331 0 331c0 15-5 28-16 39c-11 11-24 16-39 16c0 0-83 0-83 0c0 0 0-158 0-158c0 0 58 0 58 0c0 0 0-69 0-69c0 0-58 0-58 0c0 0 0-36 0-36c0-10 5-15 14-15c0 0 44 0 44 0c0 0 0-78 0-78c0 0-49 0-49 0c-25 0-46 9-63 28c-17 18-26 41-26 67c0 0 0 34 0 34c0 0-53 0-53 0c0 0 0 69 0 69c0 0 53 0 53 0c0 0 0 158 0 158c0 0-167 0-167 0c-15 0-28-5-39-16c-11-11-16-24-16-39c0 0 0-331 0-331c0-15 5-28 16-38c11-11 24-16 39-16c0 0 330 0 330 0"/>
    </symbol>
  
    <symbol id="icon-menu" viewBox="0 0 512 512">
      <path d="m410 230c7 0 13 3 18 8c5 5 7 11 7 18c0 7-2 13-7 18c-6 5-12 8-18 8c0 0-308 0-308 0c-6 0-12-3-18-8c-5-5-7-11-7-18c0-7 2-13 7-18c5-5 11-8 18-8c0 0 308 0 308 0m-308-51c-6 0-12-2-18-7c-5-6-7-12-7-18c0-7 2-13 7-18c5-5 11-8 18-8c0 0 308 0 308 0c7 0 13 3 18 8c5 5 7 11 7 18c0 6-2 12-7 18c-6 5-12 7-18 7c0 0-308 0-308 0m308 154c7 0 13 2 18 7c5 6 7 12 7 18c0 7-2 13-7 18c-6 5-12 8-18 8c0 0-308 0-308 0c-6 0-12-3-18-8c-5-5-7-11-7-18c0-6 2-12 7-18c5-5 11-7 18-7c0 0 308 0 308 0"/>
    </symbol>
  
    <symbol id="icon-list-add" viewBox="0 0 512 512">
      <path d="m179 230c8 0 14 3 19 8c4 5 7 11 7 18c0 7-3 13-8 18c-5 5-11 8-18 8c0 0-153 0-153 0c-7 0-13-3-18-8c-5-5-8-11-8-18c0-7 2-13 7-18c5-5 11-8 19-8c0 0 153 0 153 0m0 103c8 0 14 2 19 7c4 6 7 12 7 18c0 7-3 13-8 18c-5 5-11 8-18 8c0 0-153 0-153 0c-7 0-13-3-18-8c-5-5-8-11-8-18c0-6 2-12 7-18c5-5 11-7 19-7c0 0 153 0 153 0m318-103c10 0 15 9 15 26c0 17-5 26-15 26c0 0-87 0-87 0c0 0 0 87 0 87c0 10-9 15-26 15c-17 0-26-5-26-15c0 0 0-87 0-87c0 0-84 0-84 0c-10 0-15-9-15-26c0-17 5-26 15-26c0 0 84 0 84 0c0 0 0-87 0-87c0-10 9-15 26-15c17 0 26 5 26 15c0 0 0 87 0 87c0 0 87 0 87 0m-318-102c8 0 14 3 19 8c4 5 7 11 7 18c0 6-3 12-8 18c-5 5-11 7-18 7c0 0-153 0-153 0c-7 0-13-2-18-7c-5-6-8-12-8-18c0-7 2-13 7-18c5-5 11-8 19-8c0 0 153 0 153 0"/>
    </symbol>
  
    <symbol id="icon-list" viewBox="0 0 512 512">
      <path d="m128 333c7 0 13 2 18 7c5 6 8 12 8 18c0 7-3 13-8 18c-5 5-11 8-18 8c0 0-26 0-26 0c-6 0-12-3-18-8c-5-5-7-11-7-18c0-6 2-12 7-18c5-5 11-7 18-7c0 0 26 0 26 0m0-103c7 0 13 3 18 8c5 5 8 11 8 18c0 7-3 13-8 18c-5 5-11 8-18 8c0 0-26 0-26 0c-6 0-12-3-18-8c-5-5-7-11-7-18c0-7 2-13 7-18c5-5 11-8 18-8c0 0 26 0 26 0m0-102c7 0 13 3 18 8c5 5 8 11 8 18c0 6-3 12-8 18c-5 5-11 7-18 7c0 0-26 0-26 0c-6 0-12-2-18-7c-5-6-7-12-7-18c0-7 2-13 7-18c5-5 11-8 18-8c0 0 26 0 26 0m102 51c-6 0-12-2-18-7c-5-6-7-12-7-18c0-7 2-13 7-18c6-5 12-8 18-8c0 0 180 0 180 0c7 0 13 3 18 8c5 5 7 11 7 18c0 6-2 12-7 18c-6 5-12 7-18 7c0 0-180 0-180 0m180 51c7 0 13 3 18 8c5 5 7 11 7 18c0 7-2 13-7 18c-6 5-12 8-18 8c0 0-180 0-180 0c-6 0-12-3-18-8c-5-5-7-11-7-18c0-7 2-13 7-18c6-5 12-8 18-8c0 0 180 0 180 0m0 103c7 0 13 2 18 7c5 6 7 12 7 18c0 7-2 13-7 18c-6 5-12 8-18 8c0 0-180 0-180 0c-6 0-12-3-18-8c-5-5-7-11-7-18c0-6 2-12 7-18c6-5 12-7 18-7c0 0 180 0 180 0"/>
    </symbol>
  
    <symbol id="icon-moon" viewBox="0 0 512 512">
      <path d="m314 313c37-36 58-79 64-129c7-50-2-96-27-138c18 9 34 21 49 37c44 44 66 96 66 158c0 62-22 115-66 158c-43 44-96 66-158 66c-62 0-115-22-159-66c-14-13-26-29-37-48c42 24 89 33 139 26c50-6 93-27 129-64"/>
    </symbol>
  
    <symbol id="icon-upload-cloud" viewBox="0 0 512 512">
      <path d="m389 182c34 0 63 12 87 35c24 23 36 52 36 85c0 34-12 62-36 85c-24 23-53 35-87 35c0 0-97 0-97 0c0 0 0-97 0-97c0 0 54 0 54 0c0 0-90-118-90-118c0 0-89 118-89 118c0 0 53 0 53 0c0 0 0 97 0 97c0 0-127 0-127 0c-25 0-47-9-65-27c-19-17-28-39-28-63c0-25 9-47 27-65c18-17 40-26 66-26c5 0 8 0 10 1c0-4-1-11-1-20c0-37 14-68 40-94c27-26 59-39 97-39c30 0 58 9 82 27c23 17 39 40 48 68c9-1 16-2 20-2"/>
    </symbol>
  
    <symbol id="icon-user-add" viewBox="0 0 512 512">
      <path d="m317 370c62 22 93 42 93 62c0 0 0 54 0 54c0 0-410 0-410 0c0 0 0-103 0-103c12-5 26-9 42-13c32-12 54-24 66-36c12-12 18-28 18-48c0-8-4-16-12-25c-8-9-13-21-16-38c0-4-4-8-11-13c-8-4-12-14-13-31c0-5 1-10 2-13c2-4 4-6 5-6c0 0 2-2 2-2c-3-17-5-32-6-45c-2-19 5-38 20-58c16-19 43-29 82-29c39 0 66 10 82 29c16 20 23 39 22 58c0 0-8 45-8 45c7 2 10 10 10 21c-1 10-3 17-5 22c-2 5-5 8-7 9c-2 1-5 2-7 4c-3 2-4 5-5 9c-3 16-9 28-17 38c-8 9-12 17-12 25c0 20 7 36 19 48c12 12 34 24 66 36m118-140c0 0 77 0 77 0c0 0 0 52 0 52c0 0-77 0-77 0c0 0 0 76 0 76c0 0-51 0-51 0c0 0 0-76 0-76c0 0-77 0-77 0c0 0 0-52 0-52c0 0 77 0 77 0c0 0 0-76 0-76c0 0 51 0 51 0c0 0 0 76 0 76"/>
    </symbol>
  
    <symbol id="icon-user" viewBox="0 0 512 512">
      <path d="m392 370c70 24 105 45 105 62c0 0 0 54 0 54c0 0-241 0-241 0c0 0-241 0-241 0c0 0 0-54 0-54c0-17 35-38 105-62c32-12 54-24 65-36c12-12 18-28 18-48c0-8-4-16-12-25c-7-10-12-22-16-38c-1-4-2-7-5-9c-2-2-4-3-7-4c-2-1-4-4-7-9c-2-5-4-12-4-22c0-5 0-10 2-13c2-4 3-6 5-6c0 0 2-2 2-2c-3-17-5-32-6-45c-2-19 5-38 21-58c15-19 42-29 80-29c38 0 65 10 81 29c16 20 22 39 20 58c0 0-6 45-6 45c6 2 9 10 9 21c0 10-2 17-4 22c-3 5-5 8-7 9c-3 1-5 2-7 4c-3 2-4 5-5 9c-3 17-8 29-16 38c-8 9-12 17-12 25c0 20 6 36 18 48c12 12 34 24 65 36"/>
    </symbol>
  
    <symbol id="icon-atom" viewBox="0 0 512 512">
      <path d="m256 192c-35 0-64 29-64 64c0 35 29 64 64 64c35 0 64-29 64-64c0-35-29-64-64-64z m197 8c-7-2-13-6-19-11c-8 16-19 32-30 49c-18-23-38-46-61-69c-23-22-46-43-69-61c55-39 108-62 145-62c16 0 27 4 35 12c9 8 12 22 12 38c1 0 2 0 3 0c6 0 12 1 18 3c1-24-5-43-18-56c-12-12-28-18-50-18c-43 0-102 26-163 70c-61-44-120-70-163-70c-5 0-9 0-13 1c6 5 10 12 13 20c37 0 90 23 145 62c-23 18-46 39-69 61c-22 23-43 46-61 69c-18-26-33-51-44-76c-7-16-12-32-15-45c-2 0-4 0-6 0c-6 0-11-1-16-2c3 17 9 35 18 56c12 27 29 56 50 85c-21 29-38 58-50 85c-26 58-27 104-2 128c12 12 28 18 50 18c64 0 162-56 250-144c22-23 43-46 61-69c59 83 76 154 50 180c-8 8-19 12-35 12c-20 0-44-7-71-19c-3 7-7 13-12 18c31 14 59 22 83 22c22 0 38-6 50-18c37-37 14-122-52-213c14-19 26-38 36-56z m-360 266c-16 0-27-4-35-12c-18-17-15-55 6-104c11-25 26-50 44-76c18 23 39 47 61 69c23 23 46 43 69 61c-55 39-108 62-145 62z m235-138c-23 23-48 44-72 63c-24-19-48-40-72-63c-23-24-44-48-63-72c19-24 40-48 63-72c24-23 48-44 72-63c24 19 48 40 72 63c24 24 45 48 63 72c-19 24-40 48-63 72z m141-200c-11 0-21 10-21 21c0 12 10 22 21 22c12 0 22-10 22-22c0-11-10-21-22-21z m-170 277c-12 0-22 10-22 22c0 11 10 21 22 21c11 0 21-10 21-21c0-12-10-22-21-22z m-256-320c11 0 21-9 21-21c0-12-10-21-21-21c-12 0-22 9-22 21c0 12 10 21 22 21z"/>
    </symbol>
  
    <symbol id="icon-bars-1" viewBox="0 0 512 512">
      <path d="m491 469l0-21l-22 0l0 21l-21 0l0-213l-107 0l0 213l-21 0l0-426l-107 0l0 426l-21 0l0-256l-21 0l0-21l-22 0l0 21l-42 0l0-21l-22 0l0 277l-42 0l0-469l-43 0l0 512l512 0l0-43z m-342 0l-21 0l0-213l21 0z m128 0l-21 0l0-384l21 0z m128 0l-21 0l0-170l21 0z m-320-469l22 0l0 21l-22 0z m64 0l22 0l0 21l-22 0z m64 0l22 0l0 21l-22 0z m64 0l22 0l0 21l-22 0z m64 0l22 0l0 21l-22 0z m64 0l22 0l0 21l-22 0z m64 0l22 0l0 21l-22 0z m0 64l22 0l0 21l-22 0z m-64 0l22 0l0 21l-22 0z m-64 0l22 0l0 21l-22 0z m0 64l22 0l0 21l-22 0z m64 0l22 0l0 21l-22 0z m64 0l22 0l0 21l-22 0z m0 64l22 0l0 21l-22 0z m-64 0l22 0l0 21l-22 0z m-64 0l22 0l0 21l-22 0z m128 64l22 0l0 21l-22 0z m0 64l22 0l0 21l-22 0z m0 64l22 0l0 21l-22 0z m-320-320l22 0l0 21l-22 0z m0 64l22 0l0 21l-22 0z m-64 0l22 0l0 21l-22 0z m0-64l22 0l0 21l-22 0z"/>
    </symbol>
  
    <symbol id="icon-graph-1" viewBox="0 0 512 512">
      <path d="m491 469l-43 0l0-21l-21 0l0 21l-43 0l0-21l-21 0l0 21l-43 0l0-21l-21 0l0 21l-43 0l0-21l-21 0l0 21l-43 0l0-21l-21 0l0 21l-94 0l112-67l56-163l83 145l160-266l-37-22l-123 204l-93-164l-81 237l-111 67l0-440l-43 0l0 512l512 0l0-64l-21 0z m0-469l21 0l0 21l-21 0z m-64 0l21 0l0 21l-21 0z m-64 0l21 0l0 21l-21 0z m-64 0l21 0l0 21l-21 0z m-64 0l21 0l0 21l-21 0z m-64 0l21 0l0 21l-21 0z m-64 0l21 0l0 21l-21 0z m-64 0l21 0l0 21l-21 0z m448 64l21 0l0 21l-21 0z m-64 0l21 0l0 21l-21 0z m-64 0l21 0l0 21l-21 0z m-64 0l21 0l0 21l-21 0z m-64 0l21 0l0 21l-21 0z m-64 0l21 0l0 21l-21 0z m-64 0l21 0l0 21l-21 0z m-64 0l21 0l0 21l-21 0z m448 64l21 0l0 21l-21 0z m-128 0l21 0l0 21l-21 0z m-64 0l21 0l0 21l-21 0z m-128 0l21 0l0 21l-21 0z m-64 0l21 0l0 21l-21 0z m-64 0l21 0l0 21l-21 0z m448 64l21 0l0 21l-21 0z m-192 0l21 0l0 21l-21 0z m-128 0l21 0l0 21l-21 0z m-64 0l21 0l0 21l-21 0z m-64 0l21 0l0 21l-21 0z m448 64l21 0l0 21l-21 0z m-64 0l21 0l0 21l-21 0z m-320 0l21 0l0 21l-21 0z m-64 0l21 0l0 21l-21 0z m448 64l21 0l0 21l-21 0z m-64 0l21 0l0 21l-21 0z m-192 0l21 0l0 21l-21 0z m-128 0l21 0l0 21l-21 0z m-64 0l21 0l0 21l-21 0z m448 64l21 0l0 21l-21 0z m-64 0l21 0l0 21l-21 0z m-64 0l21 0l0 21l-21 0z m-128 0l21 0l0 21l-21 0z m-192 0l21 0l0 21l-21 0z"/>
    </symbol>
  
    <symbol id="icon-facebook-alt" viewBox="0 0 512 512">
      <path d="m486 102c0-40-36-76-76-76l-308 0c-40 0-76 36-76 76l0 308c0 40 36 76 76 76l154 0l0-174l-56 0l0-76l56 0l0-30c0-52 39-98 86-98l62 0l0 76l-62 0c-6 0-14 9-14 21l0 31l76 0l0 76l-76 0l0 174l82 0c40 0 76-36 76-76z"/>
    </symbol>
  
    <symbol id="icon-whatsapp" viewBox="0 0 512 512">
      <path d="m486 252c0 124-101 225-226 225c-39 0-77-11-109-28l-125 39l40-120c-20-34-32-73-32-116c0-124 101-224 226-224c125 0 226 100 226 224z m-226-189c-105 0-190 85-190 189c0 41 13 80 36 111l-24 70l74-23c30 19 66 31 104 31c105 0 190-85 190-189c0-104-85-189-190-189z m114 241c-1-2-5-4-10-7c-6-2-33-16-38-17c-5-2-9-3-13 2c-3 6-14 18-17 22c-3 4-7 4-12 1c-6-3-24-8-45-27c-16-15-27-33-31-38c-3-6 0-9 3-11c2-3 5-7 8-10c3-3 4-6 6-9c2-4 1-7-1-10c-1-3-12-30-17-41c-4-11-9-9-12-9c-4 0-7 0-11 0c-4 0-10 1-15 7c-5 5-19 18-19 45c0 28 20 54 22 57c3 4 39 61 95 83c57 22 57 15 67 14c10-1 33-13 37-26c5-13 5-24 3-26z"/>
    </symbol>
  
    <symbol id="icon-youtube" viewBox="0 0 512 512">
      <path d="m389 363l-25 0l0-15c0-7 5-12 12-12l1 0c7 0 12 5 12 12z m-95-32c-6 0-12 4-12 10l0 71c0 5 6 10 12 10c6 0 12-5 12-10l0-71c0-6-6-10-12-10z m154-40l0 136c0 33-28 59-63 59l-258 0c-35 0-63-26-63-59l0-136c0-32 28-59 63-59l258 0c35 0 63 27 63 59z m-304 151l0-143l32 0l0-21l-85-1l0 21l26 0l0 144z m96-122l-27 0l0 76c0 12 1 17 0 19c-2 6-12 12-15 1c-1-2 0-8 0-19l-1-77l-26 0l0 76c0 11 0 20 0 24c1 7 0 15 7 20c12 8 35-2 41-14l0 16l21 0l0-122z m85 88l0-64c0-24-18-39-42-19l0-47l-27 0l0 163l22 0l2-11c28 26 46 8 45-22z m84-9l-20 0c0 1 0 2 0 3l0 11c0 6-5 11-11 11l-4 0c-6 0-11-5-11-11l0-29l46 0l0-17c0-13 0-26-1-33c-4-23-36-26-52-15c-5 4-9 9-11 15c-2 7-3 16-3 27l0 38c0 63 76 54 67 0z m-103-206c2 4 4 6 7 8c3 2 6 3 11 3c4 0 7-1 10-3c3-2 5-5 7-9l0 10l30 0l0-127l-24 0l0 99c0 5-4 10-10 10c-5 0-9-5-9-10l0-99l-25 0l0 86c0 11 0 18 1 22c0 3 1 7 2 10z m-90-71c0-12 1-22 3-29c2-7 6-12 11-16c5-4 12-6 20-6c7 0 13 1 18 4c5 2 9 6 11 10c3 4 5 9 6 13c1 5 1 12 1 21l0 32c0 12 0 20-1 26c-1 5-3 10-6 15c-3 5-7 8-11 11c-5 2-10 3-16 3c-7 0-13-1-18-3c-4-2-8-5-11-9c-2-4-4-8-5-14c-1-5-2-14-2-25l0-33z m23 50c0 7 6 13 12 13c7 0 12-6 12-13l0-67c0-8-5-13-12-13c-6 0-12 5-12 13z m-82 34l28 0l0-97l33-83l-30 0l-18 62l-18-62l-30 0l35 83z"/>
    </symbol>
  
</svg>
